<svg xmlns="http://www.w3.org/2000/svg">
  <symbol xmlns="http://www.w3.org/2000/svg" viewBox="0 0 24 24" id="up-down">
    <g id="Chevron up down">
      <path id="Vector" d="M17 9L12 14L7 9" stroke-width="1.5" stroke-linecap="round" stroke-linejoin="round"></path>
    </g>
  </symbol>
  <symbol xmlns="http://www.w3.org/2000/svg" viewBox="0 0 20 20" id="Discord">
    <path d="M16.3636 4.09261C15.1768 3.53736 13.9079 3.13383 12.5813 2.90405C12.4183 3.19862 12.228 3.59481 12.0968 3.90998C10.6865 3.6979 9.28924 3.6979 7.90494 3.90998C7.77373 3.59481 7.57906 3.19862 7.41467 2.90405C6.08661 3.13383 4.81623 3.53884 3.62948 4.09555C1.23579 7.71272 0.586904 11.24 0.911349 14.7173C2.49897 15.9029 4.03756 16.6231 5.55018 17.0944C5.92366 16.5804 6.25675 16.034 6.5437 15.4581C5.9972 15.2504 5.47376 14.9942 4.97918 14.6967C5.11039 14.5995 5.23873 14.4978 5.36273 14.3933C8.37934 15.8042 11.657 15.8042 14.6375 14.3933C14.763 14.4978 14.8913 14.5995 15.0211 14.6967C14.525 14.9956 14.0002 15.2519 13.4537 15.4596C13.7406 16.034 14.0723 16.5819 14.4472 17.0958C15.9613 16.6245 17.5013 15.9044 19.0889 14.7173C19.4696 10.6863 18.4386 7.19135 16.3636 4.09261ZM6.95467 12.5788C6.04912 12.5788 5.30649 11.7334 5.30649 10.7039C5.30649 9.67447 6.03326 8.82762 6.95467 8.82762C7.87611 8.82762 8.61871 9.67299 8.60286 10.7039C8.60429 11.7334 7.87611 12.5788 6.95467 12.5788ZM13.0456 12.5788C12.14 12.5788 11.3974 11.7334 11.3974 10.7039C11.3974 9.67447 12.1242 8.82762 13.0456 8.82762C13.967 8.82762 14.7096 9.67299 14.6938 10.7039C14.6938 11.7334 13.967 12.5788 13.0456 12.5788Z"></path>
  </symbol>
  <symbol xmlns="http://www.w3.org/2000/svg" viewBox="0 0 20 20" id="Instagram">
    <path d="M6.52626 1.66663C3.8464 1.66663 1.6665 3.84854 1.6665 6.52909V13.4735C1.6665 16.1534 3.84842 18.3333 6.52897 18.3333H13.4734C16.1533 18.3333 18.3332 16.1514 18.3332 13.4708V6.52638C18.3332 3.84652 16.1513 1.66663 13.4707 1.66663H6.52626ZM14.8609 4.4444C15.2443 4.4444 15.5554 4.75552 15.5554 5.13885C15.5554 5.52218 15.2443 5.83329 14.8609 5.83329C14.4776 5.83329 14.1665 5.52218 14.1665 5.13885C14.1665 4.75552 14.4776 4.4444 14.8609 4.4444ZM9.99984 5.83329C12.2978 5.83329 14.1665 7.70204 14.1665 9.99996C14.1665 12.2979 12.2978 14.1666 9.99984 14.1666C7.70192 14.1666 5.83317 12.2979 5.83317 9.99996C5.83317 7.70204 7.70192 5.83329 9.99984 5.83329ZM9.99984 7.22218C9.26312 7.22218 8.55659 7.51484 8.03565 8.03577C7.51472 8.55671 7.22206 9.26325 7.22206 9.99996C7.22206 10.7367 7.51472 11.4432 8.03565 11.9641C8.55659 12.4851 9.26312 12.7777 9.99984 12.7777C10.7366 12.7777 11.4431 12.4851 11.964 11.9641C12.485 11.4432 12.7776 10.7367 12.7776 9.99996C12.7776 9.26325 12.485 8.55671 11.964 8.03577C11.4431 7.51484 10.7366 7.22218 9.99984 7.22218Z"></path>
  </symbol>
  <symbol xmlns="http://www.w3.org/2000/svg" viewBox="0 0 20 20" id="Telegram">
    <path d="M18.0184 2.70844C17.7341 2.46736 17.2876 2.43286 16.8259 2.61822H16.8252C16.3396 2.81306 3.07996 8.50052 2.54017 8.73288C2.44199 8.767 1.58455 9.08693 1.67288 9.79957C1.75172 10.4421 2.44086 10.7082 2.52501 10.7389L5.89601 11.8931C6.11966 12.6376 6.94412 15.3843 7.12645 15.9711C7.24017 16.3369 7.42553 16.8175 7.75039 16.9165C8.03545 17.0264 8.31898 16.926 8.50245 16.7819L10.5634 14.8703L13.8905 17.465L13.9697 17.5124C14.1956 17.6124 14.412 17.6625 14.6186 17.6625C14.7782 17.6625 14.9314 17.6325 15.0777 17.5726C15.5761 17.3679 15.7755 16.893 15.7964 16.8391L18.2815 3.92182C18.4331 3.23193 18.2224 2.88091 18.0184 2.70844ZM8.869 12.3548L7.73182 15.3873L6.59463 11.5967L15.3131 5.15264L8.869 12.3548Z"></path>
  </symbol>
  <symbol xmlns="http://www.w3.org/2000/svg" viewBox="0 0 20 20" id="X">
    <path fill-rule="evenodd" clip-rule="evenodd" d="M2.59184 2.62803C2.64236 2.69844 3.81239 4.36178 5.19191 6.32434C6.57142 8.28689 7.84734 10.1018 8.02731 10.3576C8.20725 10.6133 8.35449 10.8277 8.35449 10.8339C8.35449 10.8402 8.28747 10.9209 8.20558 11.0133C8.12368 11.1056 7.89299 11.367 7.69297 11.5942C7.49293 11.8213 7.15572 12.2042 6.94361 12.4449C6.73151 12.6857 6.35836 13.1094 6.11438 13.3866C5.87042 13.6637 5.43169 14.1619 5.13944 14.4937C4.23555 15.52 4.10511 15.6683 3.41705 16.451C3.04965 16.8689 2.69733 17.2686 2.63414 17.339C2.57095 17.4095 2.51925 17.4746 2.51925 17.4836C2.51925 17.4942 2.75002 17.5 3.16943 17.5H3.81959L4.53438 16.6864C4.92753 16.2389 5.31534 15.7985 5.39619 15.7076C5.57103 15.5111 6.90434 13.9959 7.01641 13.8663C7.05932 13.8167 7.12164 13.7461 7.15491 13.7094C7.1882 13.6727 7.45051 13.375 7.73784 13.0479C8.02516 12.7208 8.26814 12.4452 8.27776 12.4354C8.28741 12.4256 8.43951 12.2528 8.61579 12.0513C8.79206 11.8499 8.94173 11.685 8.94838 11.685C8.95504 11.685 9.86053 12.9655 10.9606 14.5306C12.0607 16.0956 12.9804 17.4038 13.0044 17.4377L13.048 17.4993L15.2782 17.4997C17.1123 17.4999 17.5069 17.4962 17.4999 17.4783C17.4925 17.4593 16.424 15.9371 13.6827 12.0402C11.7094 9.23487 11.447 8.85789 11.4545 8.83876C11.4618 8.82015 11.7306 8.5131 13.4977 6.50469C13.8008 6.16018 14.2187 5.68502 14.4263 5.44879C14.6338 5.21256 14.8434 4.97467 14.892 4.92015C14.9406 4.86564 15.196 4.57572 15.4596 4.27588C15.7232 3.97605 16.1714 3.46658 16.4555 3.14373C16.7396 2.82088 16.9825 2.54398 16.9952 2.52836C17.0171 2.50165 16.98 2.5 16.358 2.5H15.6977L15.4039 2.83453C15.013 3.27974 14.3063 4.08258 14.1057 4.30945C14.017 4.40969 13.9064 4.53567 13.8599 4.58939C13.8134 4.64312 13.7216 4.74694 13.656 4.82013C13.5903 4.89331 13.2595 5.26914 12.9208 5.65529C12.5821 6.04144 12.3004 6.3611 12.2947 6.36564C12.289 6.37018 12.2165 6.4524 12.1334 6.54836C11.9882 6.71621 11.8404 6.88421 11.1626 7.65195C10.8651 7.98896 10.8499 8.00343 10.8248 7.97246C10.8103 7.95461 9.93846 6.71607 8.88727 5.22017L6.97602 2.50035L4.73801 2.50017L2.5 2.5L2.59184 2.62803ZM4.33857 3.51997C4.35539 3.54503 4.77353 4.13051 5.2678 4.82104C6.20521 6.13066 9.88885 11.2801 12.2579 14.5925C13.0149 15.651 13.6435 16.5264 13.6548 16.5379C13.6709 16.5542 13.8913 16.5577 14.6847 16.5544L15.6941 16.5501L13.0527 12.8579C11.5999 10.8272 9.4965 7.88711 8.37847 6.32434L6.34568 3.48293L5.32686 3.47867L4.30804 3.47441L4.33857 3.51997Z"></path>
  </symbol>
  <symbol xmlns="http://www.w3.org/2000/svg" viewBox="0 0 13 20" id="Facebook">
    <path d="M9.4957 3.91304H11.6696C11.9096 3.91304 12.1044 3.71826 12.1044 3.47826V0.54913C12.1044 0.321304 11.9292 0.131739 11.7022 0.115652C11.0105 0.0665217 9.65918 0 8.68744 0C6.01744 0 4.27831 1.6 4.27831 4.50783V7.3913H1.23483C0.994831 7.3913 0.800049 7.58609 0.800049 7.82609V10.8696C0.800049 11.1096 0.994831 11.3043 1.23483 11.3043H4.27831V19.5652C4.27831 19.8052 4.47309 20 4.71309 20H7.75657C7.99657 20 8.19135 19.8052 8.19135 19.5652V11.3043H11.3314C11.5531 11.3043 11.7392 11.1378 11.7635 10.9174L12.1018 7.87391C12.1305 7.61652 11.9287 7.3913 11.6696 7.3913H8.19135V5.21739C8.19135 4.49696 8.77527 3.91304 9.4957 3.91304Z"></path>
  </symbol>
  <symbol xmlns="http://www.w3.org/2000/svg" viewBox="0 0 24 18" id="Youtube">
    <path fill-rule="evenodd" clip-rule="evenodd" d="M21.3682 1.00455C22.4045 1.29091 23.2227 2.10909 23.4955 3.14545C24 5.02727 24 8.95455 24 8.95455C24 8.95455 24 12.8818 23.5091 14.7636C23.2227 15.8136 22.4182 16.6318 21.3818 16.9045C19.5 17.4091 12 17.4091 12 17.4091C12 17.4091 4.5 17.4091 2.63182 16.9045C1.59545 16.6182 0.777273 15.8 0.504545 14.7636C0 12.8818 0 8.95455 0 8.95455C0 8.95455 0 5.02727 0.490909 3.14545C0.777273 2.09545 1.58182 1.27727 2.61818 1.00455C4.5 0.5 12 0.5 12 0.5C12 0.5 19.5 0.5 21.3682 1.00455ZM15.8181 8.95455L9.54536 5.38182V12.5273L15.8181 8.95455Z"></path>
  </symbol>
  <symbol fill="none" xmlns="http://www.w3.org/2000/svg" viewBox="0 0 10 10" id="people">
    <path d="M4.16699 6.25H2.50032C1.34973 6.25 0.416992 7.18274 0.416992 8.33333H6.25033C6.25033 7.18274 5.31758 6.25 4.16699 6.25Z" fill="#171717"></path>
    <path d="M7.01891 6.75H7.91703C8.39009 6.75 8.79739 7.03156 8.9805 7.43623L8.34215 7.45723C7.80237 7.47498 7.2995 7.20163 7.01891 6.75Z" stroke="#1F1F1F" stroke-linecap="round"></path>
    <circle cx="3.33301" cy="3.125" r="1.875" fill="#171717"></circle>
    <ellipse cx="7.5" cy="3.95837" rx="1.25" ry="1.25" fill="#171717"></ellipse>
  </symbol>
   <symbol fill="none" xmlns="http://www.w3.org/2000/svg" viewBox="0 0 313 28" id="line">
    <mask id="mask0_4040_5639" maskUnits="userSpaceOnUse" x="10" y="10" width="302" height="8">
      <path d="M13.9912 10.8547C14.3653 10.3191 14.9775 10 15.6308 10H309.163C310.78 10 311.729 11.8196 310.803 13.1453L308.009 17.1453C307.635 17.6809 307.023 18 306.369 18H12.8367C11.2195 18 10.271 16.1804 11.1971 14.8547L13.9912 10.8547Z" fill="#D9D9D9"></path>
    </mask>
    <g mask="url(#mask0_4040_5639)">
      <path opacity="0.2" d="M9 10H313V18H9V10Z" fill="#FFB932"></path>
    </g>
    <g filter="url(#filter0_d_4040_5639)">
      <path d="M13.9912 10.8547C14.3653 10.3191 14.9775 10 15.6308 10H230.928C232.545 10 233.494 11.8196 232.568 13.1453L229.773 17.1453C229.399 17.6809 228.787 18 228.134 18H12.8367C11.2195 18 10.271 16.1804 11.1971 14.8547L13.9912 10.8547Z" fill="url(#paint0_linear_4040_5639)"></path>
    </g>
    <defs>
      <filter id="filter0_d_4040_5639" x="0.833008" y="0" width="242.098" height="28" filterUnits="userSpaceOnUse" color-interpolation-filters="sRGB">
        <feFlood flood-opacity="0" result="BackgroundImageFix"></feFlood>
        <feColorMatrix in="SourceAlpha" type="matrix" values="0 0 0 0 0 0 0 0 0 0 0 0 0 0 0 0 0 0 127 0" result="hardAlpha"></feColorMatrix>
        <feOffset></feOffset>
        <feGaussianBlur stdDeviation="5"></feGaussianBlur>
        <feComposite in2="hardAlpha" operator="out"></feComposite>
        <feColorMatrix type="matrix" values="0 0 0 0 1 0 0 0 0 0.823416 0 0 0 0 0.197347 0 0 0 1 0"></feColorMatrix>
        <feBlend mode="normal" in2="BackgroundImageFix" result="effect1_dropShadow_4040_5639"></feBlend>
        <feBlend mode="normal" in="SourceGraphic" in2="effect1_dropShadow_4040_5639" result="shape"></feBlend>
      </filter>
      <linearGradient id="paint0_linear_4040_5639" x1="121.882" y1="11.3333" x2="121.882" y2="17.3889" gradientUnits="userSpaceOnUse">
        <stop stop-color="#FFB900"></stop>
        <stop offset="1" stop-color="#FF9000"></stop>
      </linearGradient>
    </defs>
  </symbol>
</svg>
