<svg xmlns="http://www.w3.org/2000/svg">
  <symbol xmlns="http://www.w3.org/2000/svg" viewBox="0 0 24 24" id="up-down">
    <g id="Chevron up down">
      <path id="Vector" d="M17 9L12 14L7 9" stroke-width="1.5" stroke-linecap="round" stroke-linejoin="round"></path>
    </g>
  </symbol>
  <symbol xmlns="http://www.w3.org/2000/svg" viewBox="0 0 20 20" id="Discord">
    <path d="M16.3636 4.09261C15.1768 3.53736 13.9079 3.13383 12.5813 2.90405C12.4183 3.19862 12.228 3.59481 12.0968 3.90998C10.6865 3.6979 9.28924 3.6979 7.90494 3.90998C7.77373 3.59481 7.57906 3.19862 7.41467 2.90405C6.08661 3.13383 4.81623 3.53884 3.62948 4.09555C1.23579 7.71272 0.586904 11.24 0.911349 14.7173C2.49897 15.9029 4.03756 16.6231 5.55018 17.0944C5.92366 16.5804 6.25675 16.034 6.5437 15.4581C5.9972 15.2504 5.47376 14.9942 4.97918 14.6967C5.11039 14.5995 5.23873 14.4978 5.36273 14.3933C8.37934 15.8042 11.657 15.8042 14.6375 14.3933C14.763 14.4978 14.8913 14.5995 15.0211 14.6967C14.525 14.9956 14.0002 15.2519 13.4537 15.4596C13.7406 16.034 14.0723 16.5819 14.4472 17.0958C15.9613 16.6245 17.5013 15.9044 19.0889 14.7173C19.4696 10.6863 18.4386 7.19135 16.3636 4.09261ZM6.95467 12.5788C6.04912 12.5788 5.30649 11.7334 5.30649 10.7039C5.30649 9.67447 6.03326 8.82762 6.95467 8.82762C7.87611 8.82762 8.61871 9.67299 8.60286 10.7039C8.60429 11.7334 7.87611 12.5788 6.95467 12.5788ZM13.0456 12.5788C12.14 12.5788 11.3974 11.7334 11.3974 10.7039C11.3974 9.67447 12.1242 8.82762 13.0456 8.82762C13.967 8.82762 14.7096 9.67299 14.6938 10.7039C14.6938 11.7334 13.967 12.5788 13.0456 12.5788Z"></path>
  </symbol>
  <symbol xmlns="http://www.w3.org/2000/svg" viewBox="0 0 20 20" id="Instagram">
    <path d="M6.52626 1.66663C3.8464 1.66663 1.6665 3.84854 1.6665 6.52909V13.4735C1.6665 16.1534 3.84842 18.3333 6.52897 18.3333H13.4734C16.1533 18.3333 18.3332 16.1514 18.3332 13.4708V6.52638C18.3332 3.84652 16.1513 1.66663 13.4707 1.66663H6.52626ZM14.8609 4.4444C15.2443 4.4444 15.5554 4.75552 15.5554 5.13885C15.5554 5.52218 15.2443 5.83329 14.8609 5.83329C14.4776 5.83329 14.1665 5.52218 14.1665 5.13885C14.1665 4.75552 14.4776 4.4444 14.8609 4.4444ZM9.99984 5.83329C12.2978 5.83329 14.1665 7.70204 14.1665 9.99996C14.1665 12.2979 12.2978 14.1666 9.99984 14.1666C7.70192 14.1666 5.83317 12.2979 5.83317 9.99996C5.83317 7.70204 7.70192 5.83329 9.99984 5.83329ZM9.99984 7.22218C9.26312 7.22218 8.55659 7.51484 8.03565 8.03577C7.51472 8.55671 7.22206 9.26325 7.22206 9.99996C7.22206 10.7367 7.51472 11.4432 8.03565 11.9641C8.55659 12.4851 9.26312 12.7777 9.99984 12.7777C10.7366 12.7777 11.4431 12.4851 11.964 11.9641C12.485 11.4432 12.7776 10.7367 12.7776 9.99996C12.7776 9.26325 12.485 8.55671 11.964 8.03577C11.4431 7.51484 10.7366 7.22218 9.99984 7.22218Z"></path>
  </symbol>
  <symbol xmlns="http://www.w3.org/2000/svg" viewBox="0 0 20 20" id="Telegram">
    <path d="M18.0184 2.70844C17.7341 2.46736 17.2876 2.43286 16.8259 2.61822H16.8252C16.3396 2.81306 3.07996 8.50052 2.54017 8.73288C2.44199 8.767 1.58455 9.08693 1.67288 9.79957C1.75172 10.4421 2.44086 10.7082 2.52501 10.7389L5.89601 11.8931C6.11966 12.6376 6.94412 15.3843 7.12645 15.9711C7.24017 16.3369 7.42553 16.8175 7.75039 16.9165C8.03545 17.0264 8.31898 16.926 8.50245 16.7819L10.5634 14.8703L13.8905 17.465L13.9697 17.5124C14.1956 17.6124 14.412 17.6625 14.6186 17.6625C14.7782 17.6625 14.9314 17.6325 15.0777 17.5726C15.5761 17.3679 15.7755 16.893 15.7964 16.8391L18.2815 3.92182C18.4331 3.23193 18.2224 2.88091 18.0184 2.70844ZM8.869 12.3548L7.73182 15.3873L6.59463 11.5967L15.3131 5.15264L8.869 12.3548Z"></path>
  </symbol>
  <symbol xmlns="http://www.w3.org/2000/svg" viewBox="0 0 20 20" id="X">
    <path fill-rule="evenodd" clip-rule="evenodd" d="M2.59184 2.62803C2.64236 2.69844 3.81239 4.36178 5.19191 6.32434C6.57142 8.28689 7.84734 10.1018 8.02731 10.3576C8.20725 10.6133 8.35449 10.8277 8.35449 10.8339C8.35449 10.8402 8.28747 10.9209 8.20558 11.0133C8.12368 11.1056 7.89299 11.367 7.69297 11.5942C7.49293 11.8213 7.15572 12.2042 6.94361 12.4449C6.73151 12.6857 6.35836 13.1094 6.11438 13.3866C5.87042 13.6637 5.43169 14.1619 5.13944 14.4937C4.23555 15.52 4.10511 15.6683 3.41705 16.451C3.04965 16.8689 2.69733 17.2686 2.63414 17.339C2.57095 17.4095 2.51925 17.4746 2.51925 17.4836C2.51925 17.4942 2.75002 17.5 3.16943 17.5H3.81959L4.53438 16.6864C4.92753 16.2389 5.31534 15.7985 5.39619 15.7076C5.57103 15.5111 6.90434 13.9959 7.01641 13.8663C7.05932 13.8167 7.12164 13.7461 7.15491 13.7094C7.1882 13.6727 7.45051 13.375 7.73784 13.0479C8.02516 12.7208 8.26814 12.4452 8.27776 12.4354C8.28741 12.4256 8.43951 12.2528 8.61579 12.0513C8.79206 11.8499 8.94173 11.685 8.94838 11.685C8.95504 11.685 9.86053 12.9655 10.9606 14.5306C12.0607 16.0956 12.9804 17.4038 13.0044 17.4377L13.048 17.4993L15.2782 17.4997C17.1123 17.4999 17.5069 17.4962 17.4999 17.4783C17.4925 17.4593 16.424 15.9371 13.6827 12.0402C11.7094 9.23487 11.447 8.85789 11.4545 8.83876C11.4618 8.82015 11.7306 8.5131 13.4977 6.50469C13.8008 6.16018 14.2187 5.68502 14.4263 5.44879C14.6338 5.21256 14.8434 4.97467 14.892 4.92015C14.9406 4.86564 15.196 4.57572 15.4596 4.27588C15.7232 3.97605 16.1714 3.46658 16.4555 3.14373C16.7396 2.82088 16.9825 2.54398 16.9952 2.52836C17.0171 2.50165 16.98 2.5 16.358 2.5H15.6977L15.4039 2.83453C15.013 3.27974 14.3063 4.08258 14.1057 4.30945C14.017 4.40969 13.9064 4.53567 13.8599 4.58939C13.8134 4.64312 13.7216 4.74694 13.656 4.82013C13.5903 4.89331 13.2595 5.26914 12.9208 5.65529C12.5821 6.04144 12.3004 6.3611 12.2947 6.36564C12.289 6.37018 12.2165 6.4524 12.1334 6.54836C11.9882 6.71621 11.8404 6.88421 11.1626 7.65195C10.8651 7.98896 10.8499 8.00343 10.8248 7.97246C10.8103 7.95461 9.93846 6.71607 8.88727 5.22017L6.97602 2.50035L4.73801 2.50017L2.5 2.5L2.59184 2.62803ZM4.33857 3.51997C4.35539 3.54503 4.77353 4.13051 5.2678 4.82104C6.20521 6.13066 9.88885 11.2801 12.2579 14.5925C13.0149 15.651 13.6435 16.5264 13.6548 16.5379C13.6709 16.5542 13.8913 16.5577 14.6847 16.5544L15.6941 16.5501L13.0527 12.8579C11.5999 10.8272 9.4965 7.88711 8.37847 6.32434L6.34568 3.48293L5.32686 3.47867L4.30804 3.47441L4.33857 3.51997Z"></path>
  </symbol>
  <symbol xmlns="http://www.w3.org/2000/svg" viewBox="0 0 13 20" id="Facebook">
    <path d="M9.4957 3.91304H11.6696C11.9096 3.91304 12.1044 3.71826 12.1044 3.47826V0.54913C12.1044 0.321304 11.9292 0.131739 11.7022 0.115652C11.0105 0.0665217 9.65918 0 8.68744 0C6.01744 0 4.27831 1.6 4.27831 4.50783V7.3913H1.23483C0.994831 7.3913 0.800049 7.58609 0.800049 7.82609V10.8696C0.800049 11.1096 0.994831 11.3043 1.23483 11.3043H4.27831V19.5652C4.27831 19.8052 4.47309 20 4.71309 20H7.75657C7.99657 20 8.19135 19.8052 8.19135 19.5652V11.3043H11.3314C11.5531 11.3043 11.7392 11.1378 11.7635 10.9174L12.1018 7.87391C12.1305 7.61652 11.9287 7.3913 11.6696 7.3913H8.19135V5.21739C8.19135 4.49696 8.77527 3.91304 9.4957 3.91304Z"></path>
  </symbol>
  <symbol xmlns="http://www.w3.org/2000/svg" viewBox="0 0 24 18" id="Youtube">
    <path fill-rule="evenodd" clip-rule="evenodd" d="M21.3682 1.00455C22.4045 1.29091 23.2227 2.10909 23.4955 3.14545C24 5.02727 24 8.95455 24 8.95455C24 8.95455 24 12.8818 23.5091 14.7636C23.2227 15.8136 22.4182 16.6318 21.3818 16.9045C19.5 17.4091 12 17.4091 12 17.4091C12 17.4091 4.5 17.4091 2.63182 16.9045C1.59545 16.6182 0.777273 15.8 0.504545 14.7636C0 12.8818 0 8.95455 0 8.95455C0 8.95455 0 5.02727 0.490909 3.14545C0.777273 2.09545 1.58182 1.27727 2.61818 1.00455C4.5 0.5 12 0.5 12 0.5C12 0.5 19.5 0.5 21.3682 1.00455ZM15.8181 8.95455L9.54536 5.38182V12.5273L15.8181 8.95455Z"></path>
  </symbol>
  <symbol fill="none" xmlns="http://www.w3.org/2000/svg" viewBox="0 0 10 10" id="people">
    <path d="M4.16699 6.25H2.50032C1.34973 6.25 0.416992 7.18274 0.416992 8.33333H6.25033C6.25033 7.18274 5.31758 6.25 4.16699 6.25Z" fill="#171717"></path>
    <path d="M7.01891 6.75H7.91703C8.39009 6.75 8.79739 7.03156 8.9805 7.43623L8.34215 7.45723C7.80237 7.47498 7.2995 7.20163 7.01891 6.75Z" stroke="#1F1F1F" stroke-linecap="round"></path>
    <circle cx="3.33301" cy="3.125" r="1.875" fill="#171717"></circle>
    <ellipse cx="7.5" cy="3.95837" rx="1.25" ry="1.25" fill="#171717"></ellipse>
  </symbol>
   <symbol fill="none" xmlns="http://www.w3.org/2000/svg" viewBox="0 0 313 28" id="line">
    <mask id="mask0_4040_5639" maskUnits="userSpaceOnUse" x="10" y="10" width="302" height="8">
      <path d="M13.9912 10.8547C14.3653 10.3191 14.9775 10 15.6308 10H309.163C310.78 10 311.729 11.8196 310.803 13.1453L308.009 17.1453C307.635 17.6809 307.023 18 306.369 18H12.8367C11.2195 18 10.271 16.1804 11.1971 14.8547L13.9912 10.8547Z" fill="#D9D9D9"></path>
    </mask>
    <g mask="url(#mask0_4040_5639)">
      <path opacity="0.2" d="M9 10H313V18H9V10Z" fill="#FFB932"></path>
    </g>
    <g filter="url(#filter0_d_4040_5639)">
      <path d="M13.9912 10.8547C14.3653 10.3191 14.9775 10 15.6308 10H230.928C232.545 10 233.494 11.8196 232.568 13.1453L229.773 17.1453C229.399 17.6809 228.787 18 228.134 18H12.8367C11.2195 18 10.271 16.1804 11.1971 14.8547L13.9912 10.8547Z" fill="url(#paint0_linear_4040_5639)"></path>
    </g>
    <defs>
      <filter id="filter0_d_4040_5639" x="0.833008" y="0" width="242.098" height="28" filterUnits="userSpaceOnUse" color-interpolation-filters="sRGB">
        <feFlood flood-opacity="0" result="BackgroundImageFix"></feFlood>
        <feColorMatrix in="SourceAlpha" type="matrix" values="0 0 0 0 0 0 0 0 0 0 0 0 0 0 0 0 0 0 127 0" result="hardAlpha"></feColorMatrix>
        <feOffset></feOffset>
        <feGaussianBlur stdDeviation="5"></feGaussianBlur>
        <feComposite in2="hardAlpha" operator="out"></feComposite>
        <feColorMatrix type="matrix" values="0 0 0 0 1 0 0 0 0 0.823416 0 0 0 0 0.197347 0 0 0 1 0"></feColorMatrix>
        <feBlend mode="normal" in2="BackgroundImageFix" result="effect1_dropShadow_4040_5639"></feBlend>
        <feBlend mode="normal" in="SourceGraphic" in2="effect1_dropShadow_4040_5639" result="shape"></feBlend>
      </filter>
      <linearGradient id="paint0_linear_4040_5639" x1="121.882" y1="11.3333" x2="121.882" y2="17.3889" gradientUnits="userSpaceOnUse">
        <stop stop-color="#FFB900"></stop>
        <stop offset="1" stop-color="#FF9000"></stop>
      </linearGradient>
    </defs>
  </symbol>
  <symbol fill="none" xmlns="http://www.w3.org/2000/svg" viewBox="0 0 25 24" id="play">
    <g id="Frame">
      <path id="Vector" d="M18.1959 11.4356C18.288 11.4914 18.3648 11.5732 18.4183 11.6724C18.4718 11.7716 18.5 11.8847 18.5 11.9998C18.5 12.115 18.4718 12.228 18.4183 12.3272C18.3648 12.4265 18.288 12.5082 18.1959 12.564L9.37672 17.9189C9.28685 17.9735 9.18552 18.0014 9.08274 17.9999C8.97996 17.9985 8.87931 17.9678 8.79074 17.9108C8.70217 17.8538 8.62876 17.7725 8.57777 17.675C8.52677 17.5774 8.49997 17.467 8.5 17.3547V6.64491C8.5 6.15294 8.98322 5.84331 9.37672 6.08242L18.1959 11.4356Z" stroke="#FFD232" stroke-width="1.5" stroke-linecap="round" stroke-linejoin="round"></path>
    </g>
  </symbol>
  <symbol xmlns="http://www.w3.org/2000/svg" viewBox="0 0 16 16" id="Arrow">
    <g id="Arrow">
      <path id="Vector" d="M7.66667 11.3333L4.33333 7.99996M4.33333 7.99996L7.66667 4.66663M4.33333 7.99996L12 7.99996" stroke-width="1.5" stroke-linecap="round" stroke-linejoin="round"></path>
    </g>
  </symbol>
  <symbol fill="none" xmlns="http://www.w3.org/2000/svg" viewBox="0 0 25 24" id="Epic-games">
    <g id="Epic games">
      <path id="Vector" d="M4.92257 1C3.65081 1 3.18457 1.46542 3.18457 2.72211V17.9034C3.18457 18.0471 3.1922 18.1791 3.2033 18.3015C3.23591 18.5772 3.23591 18.846 3.4954 19.1464C3.52037 19.1821 3.78125 19.3719 3.78125 19.3719C3.92209 19.4399 4.01922 19.4901 4.17811 19.5541L11.8898 22.7549C12.2874 22.9343 12.458 23.0099 12.7467 22.9989H12.7501C13.0422 23.0099 13.2129 22.935 13.6105 22.7549L21.318 19.5541C21.481 19.4901 21.574 19.4392 21.7183 19.3719C21.7183 19.3719 21.9792 19.1746 22.0042 19.1464C22.2644 18.846 22.2644 18.5772 22.2963 18.3015C22.3074 18.1798 22.315 18.0478 22.315 17.9076V2.72279C22.315 1.4661 21.8453 1.00069 20.577 1.00069L4.92257 1ZM17.2779 3.84955H17.9058C18.9542 3.84955 19.4676 4.35484 19.4676 5.40804V7.13014H18.1959V5.47541C18.1959 5.13924 18.0404 4.98525 17.7109 4.98525H17.4944C17.1551 4.98525 16.9997 5.13924 16.9997 5.47541V10.8026C16.9997 11.1388 17.1551 11.2928 17.4944 11.2928H17.7365C18.0613 11.2928 18.2167 11.1388 18.2167 10.8026V8.89762H19.4884V10.8638C19.4884 11.9122 18.9688 12.4285 17.9169 12.4285H17.2779C16.2227 12.4285 15.7051 11.9087 15.7051 10.8638V5.41698C15.7051 4.36859 16.222 3.84955 17.2779 3.84955ZM6.00283 3.92242H8.88284V5.09318H7.29609V7.47732H8.82525V8.64532H7.29609V11.1869H8.90504V12.3583H6.00283V3.92242ZM9.53294 3.92242H11.5644C12.6155 3.92242 13.1359 4.44146 13.1359 5.48985V7.73168C13.1359 8.78007 12.6148 9.29635 11.5644 9.29635H10.8311V12.3576H9.53294V3.92242ZM13.7215 3.92242H15.0147V12.3583H13.7215V3.92242ZM10.8269 5.05674V8.16409H11.3618C11.6872 8.16409 11.8426 8.00735 11.8426 7.66981V5.55034C11.8426 5.21417 11.6872 5.05606 11.3618 5.05606L10.8269 5.05674ZM7.26001 14.3623H7.4515L7.49521 14.3699H7.5646L7.60067 14.3809H7.63675L7.66936 14.3912L7.70544 14.3987L7.73389 14.4063L7.79841 14.4207L7.83518 14.431L7.86016 14.4386L7.88861 14.4496L7.92468 14.4606L7.94966 14.4709L7.98643 14.4854L8.01904 14.4998L8.04749 14.517L8.0801 14.5314L8.10507 14.5486L8.14185 14.5672L8.17029 14.5844L8.19874 14.5988L8.22718 14.6201L8.25702 14.6387L8.282 14.66L8.36872 14.7253L8.34652 14.7535L8.32154 14.7782L8.29934 14.8037L8.27436 14.8318L8.25702 14.8566L8.23482 14.882L8.20984 14.9068L8.18764 14.935L8.17029 14.9597L8.14462 14.9893L8.12311 15.014L8.09814 15.0422L8.07593 15.0676L8.05859 15.0958L8.03292 15.1206L8.01141 15.1501L7.98643 15.1749L7.96423 15.1996L7.93925 15.1824L7.91081 15.157L7.88097 15.1398L7.82755 15.1041L7.79494 15.0855L7.76511 15.0683L7.7325 15.0498L7.70752 15.0353L7.67907 15.0216L7.62079 14.9996L7.58472 14.9934L7.55627 14.9858L7.52366 14.9783L7.48689 14.9707L7.45081 14.9673H7.41473L7.37241 14.9597H7.30303L7.26695 14.9631H7.23087L7.19479 14.9741L7.16635 14.9817L7.13374 14.9927L7.10113 14.9989L7.0713 15.0133L7.03522 15.0278L6.98526 15.0635L6.95543 15.0807L6.93045 15.1027L6.90548 15.1199L6.8798 15.1419L6.86246 15.1666L6.83263 15.1914L6.79655 15.2416L6.7792 15.2698L6.76463 15.3021L6.74729 15.3275L6.72855 15.3598L6.71745 15.3921L6.70358 15.4203L6.69248 15.4561L6.68901 15.4918L6.6786 15.5248L6.67097 15.5606V15.5963L6.6675 15.6321V15.7145L6.67097 15.7503V15.7785L6.67444 15.8142L6.68068 15.8465L6.69178 15.8747L6.69525 15.9112L6.70635 15.9393L6.71676 15.9641L6.73133 15.9998L6.75006 16.0356L6.76394 16.061L6.80002 16.1181L6.82222 16.1463L6.83956 16.1717L6.8694 16.193L6.88674 16.2178L6.91172 16.2398L6.97 16.2831L6.99498 16.2968L7.02342 16.3154L7.05673 16.3298L7.0928 16.3436L7.11778 16.358L7.18994 16.3793L7.22255 16.3828L7.25863 16.3938L7.2947 16.3972H7.45012L7.49383 16.3938H7.52644L7.56321 16.3793L7.59929 16.3759L7.63536 16.3656L7.66381 16.358L7.69642 16.3436L7.72487 16.3298L7.75747 16.3154L7.77968 16.301L7.80812 16.2838V15.9648H7.29817V15.4533H8.45059V16.5993L8.42561 16.6165L8.40064 16.6378L8.37497 16.6564L8.34652 16.6777L8.31807 16.6921L8.2931 16.7141L8.23482 16.7499L8.19874 16.7671L8.14115 16.8028L8.10438 16.8172L8.07593 16.831L8.04332 16.8454L7.97117 16.8736L7.94272 16.8881L7.87681 16.9094L7.8442 16.9169L7.81159 16.9279L7.77551 16.9389L7.74707 16.9451L7.63883 16.9671L7.60553 16.9706L7.53337 16.9781L7.49383 16.9815L7.45775 16.9843L7.4182 16.9877H7.23781L7.20173 16.9815H7.16565L7.12958 16.974H7.09697L7.06089 16.963L6.95543 16.9417L6.92698 16.9307L6.89437 16.9272L6.8583 16.9128L6.79238 16.8915L6.72786 16.8633L6.69178 16.8489L6.6668 16.8344L6.63073 16.8207L6.60506 16.7987L6.56898 16.7849L6.54747 16.7664L6.51902 16.7492L6.46074 16.7059L6.4323 16.6873L6.41009 16.666L6.38165 16.644L6.33447 16.5979L6.30949 16.5759L6.28798 16.5512L6.26231 16.5258L6.24497 16.4976L6.22277 16.4763L6.20542 16.4467L6.18322 16.4185L6.16587 16.3938L6.14714 16.3656L6.1298 16.3326L6.11523 16.3044L6.10066 16.2721L6.08678 16.2439L6.05833 16.1786L6.04723 16.1538L6.03266 16.1215L6.02503 16.0892L6.01879 16.061L6.01115 16.0253L6.00005 15.9923L5.99242 15.9565L5.98895 15.9283L5.98271 15.8926L5.97508 15.8287L5.96744 15.7572V15.5674L5.97508 15.531V15.4952L5.98618 15.4595V15.4237L5.99658 15.3914L6.00768 15.3557L6.02225 15.2918L6.03266 15.256L6.04376 15.2237L6.08747 15.1268L6.10135 15.0986L6.11592 15.0663L6.13465 15.0333L6.14853 15.0051L6.16726 14.9803L6.20334 14.9226L6.22485 14.8944L6.24705 14.8696L6.26439 14.8415L6.31157 14.7947L6.33308 14.7693L6.35875 14.7445L6.38026 14.7198L6.41009 14.6978L6.46005 14.6545L6.4885 14.6332L6.51833 14.6146L6.54331 14.5933L6.57175 14.5747L6.60159 14.561L6.6342 14.5424L6.67027 14.5252L6.69525 14.5067L6.73133 14.4929L6.76394 14.4785L6.79655 14.4613L6.82638 14.4537L6.86246 14.4427L6.89091 14.4283L6.92351 14.4221L6.95612 14.4111L6.9922 14.4035L7.02204 14.3925L7.05811 14.385H7.09419L7.1268 14.3747H7.16288L7.19896 14.3671H7.23157L7.26001 14.3623ZM18.3506 14.3699H18.5421L18.5858 14.3774H18.6545L18.6905 14.3877H18.7301L18.7662 14.3987L18.8307 14.4132L18.8668 14.4207L18.8994 14.4269L18.9361 14.4379L18.9688 14.4489L18.9972 14.4565L19.0298 14.4668L19.0659 14.4778L19.0943 14.4922L19.1304 14.506L19.1637 14.5204L19.1963 14.539L19.2213 14.5527L19.2539 14.5713L19.2865 14.585L19.3164 14.6036L19.349 14.6249L19.3739 14.6435L19.4322 14.6868L19.4607 14.704L19.4385 14.7322L19.4211 14.7617L19.3996 14.7865L19.3774 14.8147L19.3601 14.847L19.3413 14.8765L19.3198 14.9013L19.2976 14.9295L19.2803 14.959L19.2581 14.9872L19.2407 15.012L19.2185 15.0401L19.2012 15.0731L19.179 15.1013L19.1575 15.1261L19.1353 15.1543L19.1179 15.1838L19.0895 15.1618L19.0562 15.1446L19.0312 15.1261L19.0028 15.1089L18.9701 15.0945L18.9403 15.0759L18.9077 15.0621L18.8827 15.0477L18.8466 15.034L18.821 15.0195L18.7925 15.0085L18.728 14.9872L18.6558 14.9652L18.5476 14.9439L18.5115 14.9405L18.4456 14.9329H18.37L18.3305 14.9405L18.2944 14.948L18.2618 14.9556L18.2333 14.9693L18.2076 14.9838L18.1792 15.0085L18.1577 15.0408L18.1431 15.0738V15.1591L18.1619 15.1983L18.1757 15.2203L18.1979 15.2416L18.234 15.2601L18.2625 15.2773L18.2951 15.2918L18.3311 15.3055L18.3783 15.3165L18.4033 15.3275L18.4331 15.3351L18.4692 15.3426L18.4977 15.3529L18.5303 15.3605L18.5698 15.3715L18.6059 15.3825L18.6454 15.3928L18.685 15.4004L18.7176 15.4114L18.7571 15.4217L18.7932 15.4292L18.8258 15.4368L18.9348 15.4691L18.9632 15.4801L18.9993 15.4911L19.0319 15.5049L19.068 15.5234L19.1401 15.5516L19.1727 15.5702L19.231 15.6059L19.2844 15.6451L19.3177 15.6664L19.3427 15.6912L19.3677 15.7207L19.3934 15.7455L19.4107 15.7702L19.4364 15.806L19.4537 15.8314L19.4683 15.8672L19.4822 15.8885L19.4933 15.9242L19.5044 15.9538L19.512 15.9861L19.5259 16.0576L19.5294 16.0933L19.5328 16.1257V16.2116L19.5294 16.2508L19.5217 16.3223L19.5141 16.358L19.5037 16.3903L19.4961 16.4261L19.485 16.4618L19.4745 16.4941L19.46 16.5196L19.4454 16.5519L19.4281 16.5801L19.4059 16.6055L19.3698 16.6626L19.3261 16.7128L19.3011 16.7299L19.2726 16.7554L19.2504 16.7767L19.222 16.798L19.1936 16.8124L19.1651 16.8344L19.1318 16.8516L19.0673 16.8839L19.0312 16.8984L18.9986 16.9121L18.9625 16.9231L18.9299 16.9341L18.9001 16.9417L18.8279 16.9554L18.8029 16.963L18.7669 16.9706H18.7308L18.6982 16.9781H18.6621L18.626 16.9857H18.3686L18.2604 16.9747L18.2243 16.9671L18.1917 16.9637L18.1195 16.9499L18.08 16.9424L18.0474 16.9348L18.0113 16.9238L17.9745 16.9162L17.9419 16.9059L17.9058 16.8949L17.8698 16.8805L17.8413 16.8702L17.8052 16.8592L17.7692 16.8447L17.7435 16.831L17.7074 16.82L17.679 16.8014L17.6429 16.7877L17.6144 16.7691L17.5888 16.7519L17.5527 16.7334L17.5277 16.7196L17.4993 16.6976L17.4708 16.6804L17.441 16.6584L17.416 16.6371L17.3876 16.6151L17.3619 16.5979L17.3334 16.5725L17.3556 16.5443L17.3806 16.5196L17.4021 16.4941L17.4278 16.4659L17.4451 16.4412L17.4674 16.413L17.4923 16.3876L17.5138 16.3628L17.5395 16.3346L17.5569 16.3092L17.5825 16.2845L17.604 16.2563L17.6262 16.2308L17.6512 16.2026L17.6686 16.1779L17.6942 16.1525L17.7192 16.1243L17.7442 16.1463L17.7775 16.1676L17.8025 16.1889L17.8385 16.2075L17.8635 16.226L17.8961 16.2473L17.926 16.2659L17.9586 16.2796L17.9835 16.2982L18.0162 16.3085L18.0522 16.323L18.0821 16.3374L18.1147 16.3477L18.1431 16.3621L18.1792 16.3731L18.2118 16.3835L18.2479 16.3945L18.284 16.3979L18.3173 16.4089L18.3533 16.4123H18.3929L18.4255 16.4226H18.6205L18.6531 16.4165L18.6892 16.4089L18.7141 16.4055L18.744 16.3945L18.7689 16.3807L18.8015 16.3587L18.8203 16.334L18.8342 16.3058L18.8453 16.2728V16.1903L18.8307 16.158L18.8133 16.1298L18.7911 16.1085L18.7585 16.0865L18.7336 16.0762L18.7009 16.0617L18.6649 16.0473L18.6253 16.0301L18.5996 16.0225L18.5712 16.015L18.5351 16.004L18.5101 15.9978L18.4741 15.9868L18.438 15.9833L18.4012 15.9689L18.3651 15.9655L18.3256 15.9552L18.293 15.9476L18.2569 15.9366L18.2208 15.929L18.1848 15.9187L18.1521 15.9077L18.1161 15.9002L18.0876 15.8892L18.0217 15.8679L17.9856 15.8534L17.9495 15.8431L17.8774 15.8135L17.8448 15.7964L17.8087 15.7778L17.7837 15.7606L17.7504 15.742L17.7254 15.7249L17.6928 15.7063L17.6457 15.6595L17.6207 15.6382L17.577 15.5881L17.5582 15.5633L17.5444 15.5386L17.5222 15.5056L17.5118 15.4808L17.4785 15.3949L17.4722 15.3591L17.4646 15.3268V15.2945L17.4569 15.2588V15.1123L17.4646 15.0408L17.4722 15.0113L17.4785 14.979L17.4896 14.9508L17.4972 14.915L17.5118 14.8903L17.5256 14.8538L17.5402 14.8257L17.5541 14.7899L17.5728 14.7652L17.5978 14.737L17.6165 14.7074L17.645 14.6827L17.6665 14.6579L17.6887 14.6283L17.7213 14.6036L17.7435 14.585L17.7719 14.5637L17.8295 14.528L17.8621 14.5094L17.928 14.4771L17.9565 14.4668L17.9891 14.4558L18.0252 14.4414L18.0613 14.431L18.0869 14.4235L18.1195 14.4159L18.148 14.4084L18.1806 14.4008L18.2167 14.3932L18.2888 14.387L18.3221 14.3836L18.3506 14.3699ZM9.80422 14.3946H10.4585L10.4883 14.4599L10.5022 14.4881L10.5133 14.5239L10.5279 14.5562L10.5383 14.5844L10.557 14.6167L10.5785 14.682L10.5972 14.7143L10.6257 14.7782L10.6333 14.8064L10.6909 14.9356L10.702 14.968L10.7166 14.9975L10.7339 15.0298L10.7416 15.0621L10.7603 15.0979L10.7665 15.1302L10.7998 15.1941L10.8137 15.2196L10.8283 15.2553L10.8394 15.2911L10.8498 15.3158L10.8685 15.3516L10.8796 15.3811L10.8935 15.4169L10.9046 15.4416L10.9192 15.4774L10.9518 15.5413L10.9622 15.5736L10.9698 15.6066L10.9844 15.6389L11.0017 15.6671L11.0163 15.7029L11.0309 15.7352L11.0413 15.7634L11.0711 15.8287L11.0815 15.861L11.0961 15.8933L11.1072 15.9256L11.1211 15.9538L11.1398 15.9868L11.1537 16.0191L11.1682 16.0473L11.1759 16.083L11.2043 16.147L11.2189 16.1765L11.2293 16.2088L11.2591 16.2728L11.2765 16.3085L11.2841 16.3367L11.3028 16.3731L11.3091 16.3979L11.3237 16.4336L11.3424 16.4694L11.3563 16.4941L11.3674 16.5299L11.3819 16.5594L11.3923 16.5952L11.4111 16.6199L11.4326 16.6914L11.4472 16.7169L11.461 16.7526L11.4798 16.7808L11.4943 16.8166L11.5006 16.8489L11.5117 16.8771L11.5263 16.9094L11.5436 16.9389H10.8213L10.804 16.9094L10.7929 16.8771L10.7783 16.8447L10.7644 16.809L10.7568 16.7808L10.727 16.7169L10.7166 16.6873L10.6881 16.6234L10.677 16.5952L10.6625 16.5594L10.641 16.4941L10.6264 16.4659H9.62174L9.60787 16.4983L9.59677 16.5278L9.5822 16.5636L9.56832 16.5959L9.56069 16.6241L9.54612 16.6598L9.53224 16.688L9.52114 16.7203L9.50657 16.7499L9.49269 16.7856L9.48159 16.8104L9.46702 16.8461L9.45662 16.8819L9.44205 16.9073L9.43095 16.9431H8.71563L8.72603 16.9101L8.75587 16.8461L8.76627 16.8104L8.77738 16.7822L8.79611 16.7499L8.80999 16.7176L8.82456 16.688L8.83219 16.6557L8.84606 16.6199L8.8648 16.5918L8.87867 16.5594L8.90087 16.4941L8.93348 16.4302L8.94458 16.3979L8.95846 16.3697L8.96956 16.3367L9.01327 16.2405L9.02784 16.2047L9.03825 16.1765L9.04935 16.1442L9.06808 16.1147L9.08196 16.0789L9.09306 16.0466L9.10416 16.0184L9.11804 15.9827L9.13677 15.9572L9.14787 15.9215L9.16175 15.8933L9.17285 15.861L9.18742 15.8252L9.20476 15.797L9.21586 15.7613L9.22974 15.7359L9.24084 15.7001L9.25541 15.6644L9.26929 15.6396L9.28386 15.6039L9.29496 15.5743L9.30884 15.5386L9.31994 15.5138L9.33867 15.4781L9.35255 15.4423L9.36712 15.4141L9.37475 15.3818L9.38862 15.3488L9.40736 15.3165L9.42123 15.2883L9.42886 15.2526L9.44343 15.2203L9.458 15.1907L9.48645 15.1268L9.49686 15.0986L9.52669 15.0271L9.54057 15.0016L9.55514 14.9659L9.56624 14.9377L9.57665 14.902L9.59122 14.8696L9.60995 14.8415L9.62382 14.8057L9.63493 14.7803L9.64603 14.7445L9.6599 14.7163L9.67864 14.684L9.68974 14.6483L9.70014 14.6187L9.71471 14.583L9.72859 14.5582L9.74732 14.5225L9.75842 14.4867L9.76883 14.462L9.7834 14.4262L9.80422 14.3946ZM11.8357 14.4132H12.551L12.5732 14.4414L12.6093 14.4991L12.6266 14.5314L12.6454 14.5562L12.6627 14.5885L12.6814 14.6167L12.6988 14.6497L12.7175 14.6778L12.7349 14.7026L12.7536 14.7349L12.7709 14.7645L12.7966 14.7927L12.807 14.8208L12.8292 14.8532L12.8466 14.8827L12.8688 14.9075L12.8833 14.9398L12.9007 14.968L12.9229 14.9975L12.9333 15.0257L12.959 15.058L13.0124 15.1439L13.027 15.1721L13.0485 15.2003L13.0672 15.2285L13.0846 15.2615L13.1394 15.3468L13.1567 15.3798L13.1754 15.4079L13.1969 15.3798L13.2115 15.3433L13.233 15.3186L13.2518 15.2863L13.2691 15.2615L13.2837 15.2258L13.3087 15.2003L13.3274 15.168L13.342 15.1433L13.3593 15.1137L13.3815 15.0814L13.3988 15.0566L13.4176 15.0209L13.4349 14.9961L13.4571 14.9631L13.471 14.9384L13.4897 14.9026L13.5071 14.8813L13.5258 14.8518L13.5473 14.816L13.5661 14.7913L13.5799 14.759L13.6021 14.7335L13.6195 14.6978L13.6382 14.6765L13.6597 14.6483L13.6785 14.6125L13.6958 14.5871L13.7145 14.5548L13.7319 14.53L13.7506 14.4943L13.7721 14.4689L13.7867 14.4365L13.8054 14.4118H14.5318V16.9685H13.8519V15.4643L13.8346 15.4897L13.8124 15.5255L13.795 15.5468L13.7728 15.575L13.7589 15.6107L13.7367 15.6362L13.7194 15.6609L13.6972 15.6967L13.6611 15.7469L13.6396 15.775L13.6209 15.8108L13.5994 15.8362L13.5806 15.861L13.5667 15.8967L13.5445 15.9215L13.5272 15.9469L13.505 15.9827L13.4877 16.0074L13.4655 16.0356L13.4481 16.0679L13.4335 16.0933L13.412 16.1215L13.3933 16.1538L13.3718 16.1786L13.3496 16.2081L13.3357 16.2363L13.317 16.2686L13.2955 16.2941L13.2733 16.3223L13.2594 16.358L13.2337 16.3793L13.2198 16.4075L13.1976 16.4439L13.1803 16.4687H13.1657L13.1442 16.4364L13.1255 16.4068L13.1081 16.3745L13.0894 16.3498L13.0679 16.3175L13.0492 16.2893L13.0277 16.2597L13.0089 16.2315L12.9916 16.1992L12.9728 16.1745L12.9479 16.1415L12.9333 16.1133L12.9118 16.081L12.8931 16.0562L12.8757 16.0239L12.8535 15.9943L12.8362 15.9586L12.814 15.9338L12.7966 15.9015L12.7779 15.872L12.7605 15.8397L12.7383 15.8149L12.721 15.7826L12.6988 15.7544L12.6849 15.7249L12.6627 15.6967L12.6454 15.6644L12.6232 15.6396L12.6058 15.6066L12.5836 15.5784L12.5697 15.5461L12.5441 15.5214L12.5302 15.4884L12.508 15.4602V16.9678H11.8399V14.4359L11.8357 14.4132ZM15.0439 14.4132H17.0788V14.99H15.7196V15.4017H16.9407V15.9462H15.7196V16.3828H17.0962V16.963H15.0473V14.4352L15.0439 14.4132ZM10.122 15.1969L10.1109 15.2292L10.1005 15.2588L10.0859 15.2945L10.0713 15.3268L10.0609 15.3591L10.0311 15.4231L10.0172 15.4588L10.0061 15.4884L9.99501 15.5241L9.98114 15.5489L9.97004 15.5846L9.95547 15.6204L9.94159 15.6458L9.93049 15.6815L9.91661 15.7097L9.90551 15.7455L9.88678 15.7778L9.87915 15.806L9.86527 15.8417L9.8507 15.8747L9.8396 15.9029L9.82572 15.9387H10.4217L10.4078 15.9029L10.3967 15.8706L10.3683 15.8053L10.3572 15.773L10.3426 15.7448L10.3322 15.709L10.3176 15.6767L10.3065 15.6444L10.2927 15.6149L10.2816 15.5826L10.267 15.5468L10.2566 15.5186L10.2267 15.4547L10.2205 15.4217L10.2059 15.3894L10.1914 15.3536L10.181 15.3289L10.1511 15.2574L10.1407 15.2251L10.122 15.1969ZM9.06045 19.9844H16.471L12.6884 21.2198L9.06045 19.9844Z" fill="#FFFFDF"></path>
    </g>
  </symbol>
  <symbol xmlns="http://www.w3.org/2000/svg" viewBox="0 0 24 24" id="Eye-on">
    <path d="M3.53082 2.47003C3.38865 2.33755 3.2006 2.26543 3.0063 2.26885C2.812 2.27228 2.62661 2.35099 2.4892 2.48841C2.35179 2.62582 2.27308 2.81121 2.26965 3.00551C2.26622 3.19981 2.33834 3.38785 2.47082 3.53003L20.4708 21.53C20.5395 21.6037 20.6223 21.6628 20.7143 21.7038C20.8063 21.7448 20.9056 21.7668 21.0063 21.7686C21.107 21.7704 21.207 21.7519 21.3004 21.7142C21.3938 21.6764 21.4786 21.6203 21.5499 21.5491C21.6211 21.4778 21.6772 21.393 21.7149 21.2996C21.7527 21.2062 21.7712 21.1062 21.7694 21.0055C21.7676 20.9048 21.7456 20.8055 21.7046 20.7135C21.6636 20.6215 21.6045 20.5387 21.5308 20.47L3.53082 2.47003ZM22.6768 12.553C22.1378 14.1705 21.2381 15.6443 20.0458 16.863L16.9468 13.764C17.2812 12.828 17.3429 11.8162 17.1248 10.8464C16.9068 9.87663 16.4179 8.98868 15.715 8.28581C15.0122 7.58295 14.1242 7.09407 13.1544 6.87601C12.1847 6.65795 11.1729 6.71969 10.2368 7.05403L7.75982 4.57703C9.10685 4.02899 10.5476 3.74811 12.0018 3.75003C16.9718 3.75003 21.1868 6.97303 22.6768 11.44C22.7968 11.802 22.7968 12.192 22.6768 12.553Z" ></path>
    <path d="M15.7508 12C15.7508 12.18 15.7378 12.357 15.7138 12.53L11.4698 8.28699C12.0017 8.2109 12.5439 8.25003 13.0594 8.40174C13.5749 8.55344 14.0518 8.81418 14.4578 9.16629C14.8638 9.5184 15.1893 9.95365 15.4124 10.4426C15.6355 10.9315 15.7509 11.4626 15.7508 12ZM12.5308 15.713L8.28777 11.469C8.20533 12.0455 8.25827 12.6332 8.44242 13.1857C8.62656 13.7381 8.93684 14.2401 9.34866 14.6519C9.76049 15.0636 10.2625 15.3737 10.815 15.5577C11.3675 15.7418 11.9553 15.7946 12.5318 15.712L12.5308 15.713Z" ></path>
    <path d="M6.75037 11.9997C6.75037 11.3807 6.85737 10.7867 7.05437 10.2357L3.95438 7.13574C2.76248 8.35458 1.86316 9.82836 1.32437 11.4457C1.20437 11.8077 1.20437 12.1977 1.32437 12.5597C2.81337 17.0267 7.02837 20.2497 11.9994 20.2497C13.4994 20.2497 14.9324 19.9557 16.2414 19.4227L13.7644 16.9457C12.972 17.2284 12.1234 17.3165 11.2898 17.2027C10.4563 17.0888 9.66237 16.7763 8.97485 16.2915C8.28734 15.8067 7.7264 15.1638 7.33927 14.4169C6.95215 13.67 6.75018 12.841 6.75037 11.9997Z" ></path>
  </symbol>
  <symbol xmlns="http://www.w3.org/2000/svg" viewBox="0 0 25 24" id="Wallet">
    <g id="Icon / Wallet">
      <path id="Union" fill-rule="evenodd" clip-rule="evenodd" d="M3.5 7.08594V6.08594C3.5 4.98137 4.39543 4.08594 5.5 4.08594H16.75C17.1642 4.08594 17.5 4.42172 17.5 4.83594C17.5 5.25015 17.1642 5.58594 16.75 5.58594H6.5C5.94772 5.58594 5.5 6.03365 5.5 6.58594V7.08594H20.5C21.6046 7.08594 22.5 7.98137 22.5 9.08594V11.0859H19C17.6193 11.0859 16.5 12.2052 16.5 13.5859C16.5 14.9666 17.6193 16.0859 19 16.0859H22.5V17.0859C22.5 18.1905 21.6046 19.0859 20.5 19.0859H7.5C5.29086 19.0859 3.5 17.2951 3.5 15.0859V9.08594V7.08594ZM19 12.5859H22.5V14.5859H19C18.4477 14.5859 18 14.1382 18 13.5859C18 13.0337 18.4477 12.5859 19 12.5859Z"></path>
    </g>
  </symbol>
  <symbol xmlns="http://www.w3.org/2000/svg" viewBox="0 0 24 24" id="Import">
    <g id="Icon/Import">
      <path id="Vector" fill-rule="evenodd" clip-rule="evenodd" d="M19.084 20.5C19.8354 20.5 20.5561 20.2015 21.0875 19.6701C21.6188 19.1388 21.9173 18.4181 21.9173 17.6667V9.16667C21.9173 8.41522 21.6188 7.69455 21.0875 7.1632C20.5561 6.63184 19.8354 6.33333 19.084 6.33333H14.0038C13.816 6.33317 13.636 6.25843 13.5033 6.12556L11.5001 4.12333C11.3028 3.92584 11.0686 3.76914 10.8108 3.66219C10.553 3.55523 10.2766 3.50012 9.99748 3.5H4.91732C4.16587 3.5 3.4452 3.79851 2.91385 4.32986C2.3825 4.86122 2.08398 5.58189 2.08398 6.33333V17.6667C2.08398 18.4181 2.3825 19.1388 2.91385 19.6701C3.4452 20.2015 4.16587 20.5 4.91732 20.5H19.084ZM12.709 10.5833C12.709 10.3955 12.6344 10.2153 12.5015 10.0825C12.3687 9.94963 12.1885 9.875 12.0007 9.875C11.8128 9.875 11.6326 9.94963 11.4998 10.0825C11.3669 10.2153 11.2923 10.3955 11.2923 10.5833V14.5406L9.66787 12.9161C9.5336 12.791 9.356 12.7229 9.17249 12.7261C8.98899 12.7293 8.8139 12.8037 8.68412 12.9335C8.55434 13.0632 8.48 13.2383 8.47676 13.4218C8.47353 13.6053 8.54164 13.7829 8.66676 13.9172L11.5001 16.7506C11.6329 16.8832 11.8129 16.9577 12.0007 16.9577C12.1884 16.9577 12.3684 16.8832 12.5012 16.7506L15.3345 13.9172C15.4041 13.8524 15.46 13.7742 15.4987 13.6873C15.5374 13.6004 15.5582 13.5066 15.5599 13.4115C15.5616 13.3164 15.5441 13.2219 15.5084 13.1337C15.4728 13.0455 15.4198 12.9654 15.3525 12.8981C15.2853 12.8309 15.2051 12.7778 15.1169 12.7422C15.0287 12.7066 14.9343 12.6891 14.8392 12.6908C14.7441 12.6925 14.6503 12.7133 14.5634 12.752C14.4765 12.7907 14.3983 12.8465 14.3334 12.9161L12.709 14.5406V10.5833Z"></path>
    </g>
  </symbol>
  <symbol xmlns="http://www.w3.org/2000/svg" viewBox="0 0 24 24" id="Logout">
    <g id="Icon/Log out">
      <path id="Vector" fill-rule="evenodd" clip-rule="evenodd" d="M16.4993 3.75C16.8972 3.75 17.2787 3.90804 17.56 4.18934C17.8413 4.47064 17.9993 4.85218 17.9993 5.25V18.75C17.9993 19.1478 17.8413 19.5294 17.56 19.8107C17.2787 20.092 16.8972 20.25 16.4993 20.25H10.4993C10.1015 20.25 9.71998 20.092 9.43868 19.8107C9.15738 19.5294 8.99934 19.1478 8.99934 18.75V15C8.99934 14.8011 8.92032 14.6103 8.77967 14.4697C8.63902 14.329 8.44825 14.25 8.24934 14.25C8.05043 14.25 7.85966 14.329 7.71901 14.4697C7.57836 14.6103 7.49934 14.8011 7.49934 15V18.75C7.49934 19.5456 7.81541 20.3087 8.37802 20.8713C8.94063 21.4339 9.70369 21.75 10.4993 21.75H16.4993C17.295 21.75 18.0581 21.4339 18.6207 20.8713C19.1833 20.3087 19.4993 19.5456 19.4993 18.75V5.25C19.4993 4.45435 19.1833 3.69129 18.6207 3.12868C18.0581 2.56607 17.295 2.25 16.4993 2.25H10.4993C9.70369 2.25 8.94063 2.56607 8.37802 3.12868C7.81541 3.69129 7.49934 4.45435 7.49934 5.25V9C7.49934 9.19891 7.57836 9.38968 7.71901 9.53033C7.85966 9.67098 8.05043 9.75 8.24934 9.75C8.44825 9.75 8.63902 9.67098 8.77967 9.53033C8.92032 9.38968 8.99934 9.19891 8.99934 9V5.25C8.99934 4.85218 9.15738 4.47064 9.43868 4.18934C9.71998 3.90804 10.1015 3.75 10.4993 3.75H16.4993ZM5.77934 8.47C5.63871 8.32955 5.44809 8.25066 5.24934 8.25066C5.05059 8.25066 4.85997 8.32955 4.71934 8.47L1.71934 11.47C1.57889 11.6106 1.5 11.8012 1.5 12C1.5 12.1988 1.57889 12.3894 1.71934 12.53L4.71934 15.53C4.86151 15.6625 5.04956 15.7346 5.24386 15.7312C5.43816 15.7277 5.62355 15.649 5.76096 15.5116C5.89838 15.3742 5.97709 15.1888 5.98052 14.9945C5.98394 14.8002 5.91182 14.6122 5.77934 14.47L4.05934 12.75H14.9993C15.1983 12.75 15.389 12.671 15.5297 12.5303C15.6703 12.3897 15.7493 12.1989 15.7493 12C15.7493 11.8011 15.6703 11.6103 15.5297 11.4697C15.389 11.329 15.1983 11.25 14.9993 11.25H4.05934L5.77934 9.53C5.91979 9.38937 5.99868 9.19875 5.99868 9C5.99868 8.80125 5.91979 8.61063 5.77934 8.47Z"></path>
    </g>
  </symbol>
  <symbol xmlns="http://www.w3.org/2000/svg" viewBox="0 0 24 24" id="Close">
    <g id="Icon/Close">
      <path id="Vector" d="M6.34315 6.34313L17.6569 17.6568M17.6569 6.34313L6.34315 17.6568" stroke-width="1.5" stroke-linecap="round"></path>
    </g>
  </symbol>
  <symbol xmlns="http://www.w3.org/2000/svg" viewBox="0 0 24 24" id="Transactions">
    <g id="Icon/Transactions">
      <path id="Vector" fill-rule="evenodd" clip-rule="evenodd" d="M15.9693 2.47001C16.11 2.32956 16.3006 2.25067 16.4993 2.25067C16.6981 2.25067 16.8887 2.32956 17.0293 2.47001L21.5293 6.97001C21.6698 7.11064 21.7487 7.30126 21.7487 7.50001C21.7487 7.69876 21.6698 7.88939 21.5293 8.03001L17.0293 12.53C16.9607 12.6037 16.8779 12.6628 16.7859 12.7038C16.6939 12.7448 16.5946 12.7668 16.4939 12.7686C16.3932 12.7704 16.2931 12.7519 16.1997 12.7141C16.1064 12.6764 16.0215 12.6203 15.9503 12.549C15.8791 12.4778 15.8229 12.393 15.7852 12.2996C15.7475 12.2062 15.729 12.1062 15.7307 12.0055C15.7325 11.9048 15.7546 11.8055 15.7956 11.7135C15.8366 11.6215 15.8957 11.5387 15.9693 11.47L19.1893 8.25001H7.49934C7.30043 8.25001 7.10966 8.17099 6.96901 8.03034C6.82836 7.88969 6.74934 7.69892 6.74934 7.50001C6.74934 7.3011 6.82836 7.11033 6.96901 6.96968C7.10966 6.82903 7.30043 6.75001 7.49934 6.75001H19.1893L15.9693 3.53001C15.8289 3.38939 15.75 3.19876 15.75 3.00001C15.75 2.80126 15.8289 2.61064 15.9693 2.47001ZM8.02934 11.47C8.16979 11.6106 8.24868 11.8013 8.24868 12C8.24868 12.1988 8.16979 12.3894 8.02934 12.53L4.80934 15.75H16.4993C16.6983 15.75 16.889 15.829 17.0297 15.9697C17.1703 16.1103 17.2493 16.3011 17.2493 16.5C17.2493 16.6989 17.1703 16.8897 17.0297 17.0303C16.889 17.171 16.6983 17.25 16.4993 17.25H4.80934L8.02934 20.47C8.10303 20.5387 8.16213 20.6215 8.20312 20.7135C8.24411 20.8055 8.26616 20.9048 8.26793 21.0055C8.26971 21.1062 8.25118 21.2062 8.21346 21.2996C8.17574 21.393 8.1196 21.4778 8.04838 21.549C7.97716 21.6203 7.89233 21.6764 7.79894 21.7141C7.70555 21.7519 7.60552 21.7704 7.50482 21.7686C7.40411 21.7668 7.3048 21.7448 7.2128 21.7038C7.1208 21.6628 7.038 21.6037 6.96934 21.53L2.46934 17.03C2.32889 16.8894 2.25 16.6988 2.25 16.5C2.25 16.3013 2.32889 16.1106 2.46934 15.97L6.96934 11.47C7.10997 11.3296 7.30059 11.2507 7.49934 11.2507C7.69809 11.2507 7.88871 11.3296 8.02934 11.47Z"></path>
    </g>
  </symbol>
</svg>

