<svg width="24" height="24" viewBox="0 0 24 24" fill="none" xmlns="http://www.w3.org/2000/svg">
<path fill-rule="evenodd" clip-rule="evenodd" d="M8.18141 6.85714C8.18141 5.83416 8.58373 4.85308 9.29985 4.12973C10.016 3.40638 10.9872 3 12 3C13.0128 3 13.984 3.40638 14.7002 4.12973C15.4163 4.85308 15.8186 5.83416 15.8186 6.85714C15.8186 7.88012 15.4163 8.8612 14.7002 9.58455C13.984 10.3079 13.0128 10.7143 12 10.7143C10.9872 10.7143 10.016 10.3079 9.29985 9.58455C8.58373 8.8612 8.18141 7.88012 8.18141 6.85714ZM5.0001 18.9471C5.02872 17.091 5.77879 15.3206 7.08841 14.0182C8.39804 12.7158 10.1622 11.9858 12 11.9858C13.8378 11.9858 15.602 12.7158 16.9116 14.0182C18.2212 15.3206 18.9713 17.091 18.9999 18.9471C19.0021 19.0721 18.9682 19.195 18.9023 19.3008C18.8365 19.4066 18.7415 19.4907 18.6291 19.5428C16.5494 20.506 14.2879 21.0031 12 21C9.63587 21 7.38969 20.4788 5.37093 19.5428C5.25848 19.4907 5.16352 19.4066 5.09766 19.3008C5.03179 19.195 4.99789 19.0721 5.0001 18.9471Z" fill="url(#paint0_linear_2331_7707)"/>
<defs>
<linearGradient id="paint0_linear_2331_7707" x1="12" y1="6.5286" x2="12" y2="20.2835" gradientUnits="userSpaceOnUse">
<stop stop-color="#FFB900"/>
<stop offset="1" stop-color="#FF9000"/>
</linearGradient>
</defs>
</svg>
