<svg width="24" height="25" viewBox="0 0 24 25" fill="none" xmlns="http://www.w3.org/2000/svg">
<path fill-rule="evenodd" clip-rule="evenodd" d="M3.5 12.4142V19.6716C3.5 20.7761 4.39543 21.6716 5.5 21.6716H8.5C9.05228 21.6716 9.5 21.2239 9.5 20.6716V15.8379C9.5 15.2856 9.94772 14.8379 10.5 14.8379H13.5C14.0523 14.8379 14.5 15.2856 14.5 15.8379V20.6716C14.5 21.2239 14.9477 21.6716 15.5 21.6716H18.5C19.6046 21.6716 20.5 20.7761 20.5 19.6716V12.4142C20.5 11.6186 20.1839 10.8555 19.6213 10.2929L13.4142 4.08579C12.6332 3.30474 11.3668 3.30474 10.5858 4.08579L4.37868 10.2929C3.81607 10.8555 3.5 11.6186 3.5 12.4142Z" fill="url(#paint0_linear_2331_7707)"/>
<defs>
<linearGradient id="paint0_linear_2331_7707" x1="12" y1="6.5286" x2="12" y2="20.2835" gradientUnits="userSpaceOnUse">
<stop stop-color="#FFB900"/>
<stop offset="1" stop-color="#FF9000"/>
</linearGradient>
</defs>
</svg>
