<svg width="24" height="25" viewBox="0 0 24 25" fill="none" xmlns="http://www.w3.org/2000/svg">
<path  fill-rule="evenodd" clip-rule="evenodd" d="M13.145 14.499L13 14.5859L16 18.5859H7L10 14.5859L9.85504 14.499C8.99614 13.9836 8.2323 13.3506 7.57915 12.6274L4.54054 11.5856C2.72168 10.9619 1.5 9.25159 1.5 7.3288V6.08924C1.5 5.01756 2.59133 4.29161 3.57973 4.70579L5 5.30095V4.58594H11.5H18V5.30095L19.4203 4.70579C20.4087 4.29161 21.5 5.01756 21.5 6.08924V7.3288C21.5 9.25159 20.2783 10.9619 18.4595 11.5856L15.4208 12.6274C14.7677 13.3506 14.0039 13.9836 13.145 14.499ZM5.01081 6.38974L3.19324 5.62809C2.86378 5.49003 2.5 5.73201 2.5 6.08924V7.3288C2.5 8.8243 3.4502 10.1546 4.86486 10.6396L6.50658 11.2025C5.61715 9.77117 5.09119 8.11859 5.01081 6.38974ZM16.4934 11.2025C17.3829 9.77117 17.9088 8.11859 17.9892 6.38974L19.8068 5.62809C20.1362 5.49003 20.5 5.73201 20.5 6.08924V7.3288C20.5 8.8243 19.5498 10.1546 18.1351 10.6396L16.4934 11.2025ZM5 20.4146C5 19.8623 5.44772 19.4146 6 19.4146H17C17.5523 19.4146 18 19.8623 18 20.4146C18 20.9668 17.5523 21.4146 17 21.4146H6C5.44772 21.4146 5 20.9668 5 20.4146Z" fill="url(#paint0_linear_2331_7707)" />
<defs>
<linearGradient id="paint0_linear_2331_7707" x1="12" y1="6.5286" x2="12" y2="20.2835" gradientUnits="userSpaceOnUse">
<stop stop-color="#FFB900"/>
<stop offset="1" stop-color="#FF9000"/>
</linearGradient>
</defs>
</svg>
