<svg width="24" height="25" viewBox="0 0 24 25" fill="none" xmlns="http://www.w3.org/2000/svg">
<path fill-rule="evenodd" clip-rule="evenodd" d="M3.57143 4.60019L2.61676 5.55585C2.26361 5.90936 2.22561 6.4693 2.52777 6.86728L3.51122 8.16263C3.64032 8.33267 3.81257 8.44932 4.00048 8.50974C4.00345 8.51069 4.00643 8.51163 4.00941 8.51256C4.32837 8.61183 4.69096 8.54978 4.96375 8.31264L6.11565 7.31128C6.49189 6.98421 7.05156 6.98421 7.42779 7.31128L8.73003 8.44334C9.10627 8.77041 9.66594 8.77041 10.0422 8.44334L11.3444 7.31128C11.7206 6.98421 12.2803 6.98421 12.6566 7.31128L13.9588 8.44334C14.335 8.77041 14.8947 8.77041 15.2709 8.44334L16.5732 7.31128C16.9494 6.98421 17.5091 6.98421 17.8853 7.31128L19.0372 8.31264C19.3125 8.552 19.6794 8.61297 20.0005 8.50974C20.1884 8.44932 20.3606 8.33267 20.4897 8.16263L21.4732 6.86728C21.7753 6.4693 21.7374 5.90936 21.3842 5.55585L20.4295 4.60019C20.0544 4.22467 19.5454 4.01367 19.0146 4.01367H4.98637C4.45558 4.01367 3.94656 4.22467 3.57143 4.60019ZM4.00048 19.0132V9.53423C4.56066 9.62109 5.15534 9.47113 5.61983 9.06734L6.77172 8.06598L8.07396 9.19803C8.82643 9.85217 9.94577 9.85217 10.6982 9.19803L12.0005 8.06598L13.3027 9.19803C14.0552 9.85217 15.1745 9.85217 15.927 9.19803L17.2292 8.06598L18.3811 9.06734C18.8456 9.47113 19.4403 9.62109 20.0005 9.53423V19.0132C20.0005 19.5655 19.5528 20.0132 19.0005 20.0132H17.0005V14.1802C17.0005 13.6279 16.5528 13.1802 16.0005 13.1802H14.0005C13.4482 13.1802 13.0005 13.6279 13.0005 14.1802V20.0132H5.00048C4.44819 20.0132 4.00048 19.5655 4.00048 19.0132ZM8.00048 13.1802C7.44819 13.1802 7.00048 13.6279 7.00048 14.1802V15.1802C7.00048 15.7325 7.44819 16.1802 8.00048 16.1802H10.0005C10.5528 16.1802 11.0005 15.7325 11.0005 15.1802V14.1802C11.0005 13.6279 10.5528 13.1802 10.0005 13.1802H8.00048Z" fill="url(#paint0_linear_2331_7707)"/>
<defs>
<linearGradient id="paint0_linear_2331_7707" x1="12" y1="6.5286" x2="12" y2="20.2835" gradientUnits="userSpaceOnUse">
<stop stop-color="#FFB900"/>
<stop offset="1" stop-color="#FF9000"/>
</linearGradient>
</defs>
</svg>
