<svg width="24" height="24" viewBox="0 0 24 24" fill="none" xmlns="http://www.w3.org/2000/svg">
<g id="Layer_x0020_1">
<g id="_2806038301888">
<path id="Vector" d="M12 24C18.6274 24 24 18.6274 24 12C24 5.37258 18.6274 0 12 0C5.37258 0 0 5.37258 0 12C0 18.6274 5.37258 24 12 24Z" fill="#1DA2B4"/>
<g id="Group">
<path id="Vector_2" fill-rule="evenodd" clip-rule="evenodd" d="M8.88014 3.98398C9.09134 3.75358 9.39854 3.62878 9.70574 3.62878H11.7409C12.0001 3.62878 12.1345 3.93598 11.9521 4.11838L7.92974 8.40958H10.1473L12.4033 10.8H7.92974L12.4033 15.5904H9.69614C9.37934 15.5904 9.08174 15.456 8.87054 15.2352L4.32974 10.3776C3.92654 9.94558 3.92654 9.27358 4.32974 8.84158L8.87054 3.98398H8.88014Z" fill="white"/>
<path id="Vector_3" fill-rule="evenodd" clip-rule="evenodd" d="M15.1199 20.016C14.9087 20.2464 14.6015 20.3712 14.2943 20.3712H12.2591C11.9999 20.3712 11.8655 20.064 12.0479 19.8816L16.0703 15.5904H13.8527L11.5967 13.2H16.0703L11.5967 8.40961H14.3039C14.6207 8.40961 14.9183 8.54401 15.1295 8.76481L19.6703 13.6224C20.0735 14.0544 20.0735 14.7264 19.6703 15.1584L15.1295 20.016H15.1199Z" fill="white"/>
</g>
</g>
</g>
</svg>
