<svg width="25" height="24" viewBox="0 0 25 24" fill="none" xmlns="http://www.w3.org/2000/svg">
<g id="bunny-color" clip-path="url(#clip0_4001_10647)">
<path id="Vector" fill-rule="evenodd" clip-rule="evenodd" d="M12.4326 24C8.86775 23.9973 5.996 23.1508 3.98955 21.6304C1.95892 20.0917 0.881836 17.9081 0.881836 15.4373C0.881836 13.0566 1.95663 11.3399 3.17285 10.1795C4.12591 9.27013 5.17761 8.68779 5.91005 8.3527C5.74444 7.84975 5.53772 7.19141 5.35289 6.51131C5.10556 5.60137 4.86294 4.53362 4.86294 3.75129C4.86294 2.82516 5.06688 1.89516 5.61703 1.17253C6.19836 0.409049 7.07333 0 8.126 0C8.94874 0 9.64721 0.301983 10.1941 0.822932C10.7168 1.3208 11.0647 1.98217 11.3049 2.67157C11.7269 3.88288 11.8912 5.40476 11.9374 6.9235H12.9457C12.9919 5.40476 13.1561 3.88288 13.5783 2.67157C13.8185 1.98217 14.1664 1.32092 14.6891 0.822932C15.2359 0.302104 15.9343 0 16.7571 0C17.8097 0 18.6848 0.409049 19.266 1.17253C19.8162 1.89516 20.0202 2.82516 20.0202 3.75129C20.0202 4.53362 19.7776 5.60137 19.5302 6.51131C19.3453 7.19141 19.1387 7.84975 18.9731 8.3527C19.7055 8.68779 20.7573 9.27013 21.7103 10.1795C22.9264 11.3399 24.0014 13.0566 24.0014 15.4373C24.0014 17.9081 22.9241 20.0917 20.8936 21.6304C18.8871 23.1508 16.0154 23.9973 12.4505 24H12.4326Z" fill="#633001"/>
<path id="Vector_2" d="M8.12627 0.880676C6.5845 0.880676 5.87466 2.03061 5.87466 3.62076C5.87466 4.88476 6.69934 7.41628 7.0377 8.40162C7.11386 8.62324 6.99418 8.86614 6.7761 8.95205C5.54042 9.43917 1.89355 11.2225 1.89355 15.3069C1.89355 19.6092 5.59965 22.8532 12.4336 22.8584L12.4419 22.8583L12.45 22.8584C19.2841 22.8532 22.9899 19.6092 22.9899 15.3069C22.9899 11.2225 19.3432 9.43917 18.1075 8.95205C17.8894 8.86626 17.7698 8.62336 17.8459 8.40162C18.1843 7.41616 19.0089 4.88476 19.0089 3.62076C19.0089 2.03048 18.2992 0.880676 16.7573 0.880676C14.5379 0.880676 13.9847 4.02341 13.9452 7.39646C13.9425 7.62159 13.7605 7.8043 13.5352 7.8043H11.3483C11.1231 7.8043 10.941 7.62159 10.9384 7.39634C10.899 4.02341 10.3457 0.880676 8.12627 0.880676Z" fill="#D1884F"/>
<path id="Vector_3" d="M12.4498 21.4802C7.42852 21.4802 1.90226 18.7933 1.89355 15.3151V15.3313C1.89355 19.6371 5.60533 22.8828 12.4498 22.8828C19.2944 22.8828 23.0061 19.6371 23.0061 15.3313V15.3151C22.9974 18.7933 17.4712 21.4802 12.4498 21.4802Z" fill="#FEDC90"/>
<path id="Vector_4" d="M9.65977 14.2467C9.65977 15.4211 9.10454 16.0327 8.41973 16.0327C7.73491 16.0327 7.17969 15.4211 7.17969 14.2467C7.17969 13.0724 7.73491 12.4608 8.41973 12.4608C9.10454 12.4608 9.65977 13.0724 9.65977 14.2467ZM17.7197 14.2467C17.7197 15.4211 17.1646 16.0327 16.4797 16.0327C15.7948 16.0327 15.2397 15.4211 15.2397 14.2467C15.2397 13.0724 15.7948 12.4608 16.4797 12.4608C17.1646 12.4608 17.7197 13.0724 17.7197 14.2467Z" fill="#633001"/>
</g>
<defs>
<clipPath id="clip0_4001_10647">
<rect width="23.8838" height="24" fill="white" transform="translate(0.5)"/>
</clipPath>
</defs>
</svg>
