<svg width="63" height="24" viewBox="0 0 63 24" fill="none" xmlns="http://www.w3.org/2000/svg">
<g id="bybit-3" clip-path="url(#clip0_4001_7846)">
<path id="Vector" d="M44.4863 17.5462V1.76459H47.6742V17.5462H44.4863Z" fill="#F7A600"/>
<g id="Group">
<path id="Vector_2" d="M7.33397 22.234H0.5V6.45239H7.05945C10.2473 6.45239 12.1044 8.18182 12.1044 10.8854C12.1044 12.636 10.9113 13.7675 10.0856 14.1445C11.0716 14.5871 12.3328 15.5845 12.3328 17.6909C12.3328 20.638 10.2473 22.234 7.33397 22.234ZM6.80692 9.20113H3.68786V12.8365H6.80621C8.15896 12.8365 8.91584 12.1052 8.91584 11.0181C8.91584 9.93314 8.15967 9.20113 6.80692 9.20113ZM7.01263 15.6071H3.68857V19.4867H7.01405C8.45901 19.4867 9.14567 18.6001 9.14567 17.5356C9.14567 16.4718 8.4576 15.6071 7.01405 15.6071H7.01263ZM22.056 15.7624V22.234H18.8909V15.7624L13.9828 6.45239H17.4459L20.4961 12.8139L23.5003 6.45239H26.9627L22.056 15.7624ZM36.0006 22.234H29.1666V6.45239H35.7254C38.9132 6.45239 40.7711 8.18182 40.7711 10.8854C40.7711 12.636 39.5779 13.7675 38.7522 14.1445C39.7382 14.5871 40.9995 15.5845 40.9995 17.6909C40.9995 20.638 38.914 22.234 36.0006 22.234ZM35.4736 9.20113H32.3545V12.8365H35.4736C36.8263 12.8365 37.5832 12.1052 37.5832 11.0181C37.5832 9.93314 36.8263 9.20113 35.4736 9.20113ZM35.6793 15.6071H32.3538V19.4867H35.6793C37.1249 19.4867 37.8116 18.6001 37.8116 17.5356C37.8116 16.4718 37.1249 15.6071 35.6793 15.6071ZM57.9482 9.20184V22.2354H54.7603V9.20113H50.4957V6.45239H62.2143V9.20113L57.9482 9.20184Z" fill="#15192A"/>
</g>
</g>
<defs>
<clipPath id="clip0_4001_7846">
<rect width="61.7143" height="24" fill="white" transform="translate(0.5)"/>
</clipPath>
</defs>
</svg>
