<svg width="52" height="20" viewBox="0 0 52 20" fill="none" xmlns="http://www.w3.org/2000/svg">
<g id="Group">
<path id="Vector" d="M8.99657 6.13498C9.0556 3.19173 7.40869 0.627144 6.55021 0.0105501C6.54621 0.00650018 6.47016 -0.0350108 6.47617 0.0804107C6.47617 0.0824356 6.47416 0.0824349 6.47416 0.0844599C6.38612 5.64393 3.56154 7.14238 2.02869 9.18048C-1.37921 13.7113 1.46437 18.881 5.14843 19.86C5.21146 19.8762 5.38156 19.9278 5.70474 19.9947C5.87283 20.0301 5.92186 19.8853 5.79879 19.6697C5.35854 18.8951 4.57511 17.586 4.42002 15.9053C4.06682 12.0022 8.92753 9.56016 8.99657 6.13498Z" fill="black"/>
<path id="Vector_2" d="M10.8537 8.0202C10.8247 7.99792 10.7836 7.99995 10.7796 8.03842C10.7016 8.74614 9.97819 10.2132 9.02666 11.5841C5.82288 16.208 7.43678 18.3059 8.68948 19.7608C8.92061 20.0301 9.03567 19.9714 9.15774 19.779C9.2718 19.5968 9.4439 19.3649 10.1843 19.0095C10.2994 18.9539 13.0969 17.4513 13.4001 14.0302C13.6913 10.7194 11.5941 8.62667 10.8537 8.0202Z" fill="#008CD6"/>
<path id="Vector_3" d="M27.4922 7.17773V19.3456H24.9128V14.4301H19.956V19.3456H17.3115V7.17773H19.956V12.0933H24.9128V7.17773H27.4922Z" fill="black"/>
<path id="Vector_4" d="M39.4174 7.17773V9.58437H38.1897H35.7143V19.3446H33.0609V9.58437H30.6515H29.4238V7.17773H39.4174Z" fill="black"/>
<path id="Vector_5" fill-rule="evenodd" clip-rule="evenodd" d="M48.8101 19.3577L45.7784 15.1236L42.7698 19.3395L39.8281 19.3436L44.2876 13.1321L40.0783 7.17773H43.0179L51.7378 19.3577H48.8101Z" fill="black"/>
<path id="Vector_6" d="M46.6035 9.90034L48.0583 11.9455L51.5052 7.17477H48.5816L46.6035 9.90034Z" fill="#008CD6"/>
</g>
</svg>
