<svg width="23" height="24" viewBox="0 0 23 24" fill="none" xmlns="http://www.w3.org/2000/svg">
<g id="layer1">
<g id="g6382">
<path id="rect6336" d="M2.54109 2.02655C3.66732 2.02655 4.58217 2.94095 4.58217 4.06662V19.9196C4.58217 21.0453 3.66732 21.9597 2.54109 21.9597C1.41485 21.9597 0.5 21.0453 0.5 19.9196V4.06662C0.503465 2.94095 1.41485 2.02655 2.54109 2.02655Z" fill="#23AF91"/>
<path id="rect6338" d="M15.7202 0.793486C16.5137 1.59358 16.5068 2.88551 15.7063 3.67522L4.43009 14.8281C3.62959 15.6213 2.33702 15.6143 1.54692 14.8142C0.753358 14.0141 0.760288 12.7222 1.56078 11.9325L12.837 0.783095C13.6375 -0.0135384 14.9301 -0.00661108 15.7202 0.793486Z" fill="#23AF91"/>
<path id="rect6340" d="M15.7202 23.1789C16.5137 22.3788 16.5068 21.0868 15.7063 20.2971L4.43009 9.14773C3.62959 8.35456 2.33702 8.36149 1.54692 9.16159C0.753358 9.96168 0.760288 11.2536 1.56078 12.0433L12.837 23.1927C13.6375 23.9894 14.9301 23.9824 15.7202 23.1789Z" fill="#23AF91"/>
<path id="rect6361-4" d="M21.8704 14.6203C22.664 15.4204 22.6605 16.7123 21.8635 17.5055L15.9308 23.4075C15.1303 24.2007 13.8377 24.1972 13.0442 23.4006C12.2506 22.6005 12.2541 21.3085 13.0511 20.5154L18.9838 14.6133C19.7808 13.8202 21.0734 13.8236 21.8704 14.6203Z" fill="#23AF91"/>
<path id="rect6378" d="M21.8704 9.37981C22.664 8.57971 22.6605 7.28778 21.8635 6.49461L15.9308 0.592597C15.1303 -0.200573 13.8377 -0.197109 13.0442 0.599524C12.2506 1.39962 12.2541 2.69155 13.0511 3.48472L18.9838 9.38673C19.7843 10.1799 21.0768 10.1799 21.8704 9.37981Z" fill="#23AF91"/>
<path id="path6380" d="M14.5037 14.0592C15.6406 14.0592 16.5621 13.138 16.5621 12.0018C16.5621 10.8655 15.6406 9.94437 14.5037 9.94437C13.3669 9.94437 12.4453 10.8655 12.4453 12.0018C12.4453 13.138 13.3669 14.0592 14.5037 14.0592Z" fill="#23AF91"/>
</g>
</g>
</svg>
