<svg width="25" height="24" viewBox="0 0 25 24" fill="none" xmlns="http://www.w3.org/2000/svg">
<g id="Layer_x0020_1">
<g id="_2500406570000">
<path id="Vector" d="M24.1137 15.0394L18.924 6.03744C17.7864 4.16064 15.012 4.14144 13.9137 6.11712L8.46475 15.479C7.44715 17.1955 8.70475 19.3507 10.7409 19.3507H21.659C23.7144 19.3507 25.2513 17.135 24.1137 15.0394Z" fill="#3156AA"/>
<path id="Vector_2" d="M16.6282 15.7382L16.3085 15.1795C16.009 14.6602 15.3504 13.5427 15.3504 13.5427L10.9594 5.91744C9.82179 4.22112 7.12707 4.08096 5.98947 6.21696L0.879395 15.0595C-0.178525 16.9162 1.07907 19.3306 3.37443 19.3507H14.233H18.864H21.6183C18.8045 19.3709 17.906 17.9136 16.6282 15.7382Z" fill="#1972E2"/>
<path id="Vector_3" d="M16.6292 15.7382L16.3095 15.1795C16.01 14.6601 15.3515 13.5427 15.3515 13.5427L12.5166 8.55261L8.44426 15.4992C7.42666 17.2157 8.68426 19.3718 10.7195 19.3718H14.2129H18.8439H21.6183C18.7844 19.3507 17.906 17.9136 16.6292 15.7382Z" fill="url(#paint0_linear_4001_7802)"/>
</g>
</g>
<defs>
<linearGradient id="paint0_linear_4001_7802" x1="7.25517" y1="12.3478" x2="19.0825" y2="16.9983" gradientUnits="userSpaceOnUse">
<stop stop-color="#264CA2" stop-opacity="0"/>
<stop offset="1" stop-color="#234588"/>
</linearGradient>
</defs>
</svg>
