<svg width="74" height="24" viewBox="0 0 74 24" fill="none" xmlns="http://www.w3.org/2000/svg">
<g id="market logos" clip-path="url(#clip0_2242_22567)">
<path id="Vector" d="M21.7016 2.00001H0.982167C0.853589 2.00001 0.730981 2.04663 0.640517 2.13037C0.596485 2.17042 0.561287 2.21899 0.537113 2.27303C0.512939 2.32707 0.500306 2.38544 0.5 2.4445V21.5551C0.5 21.6727 0.550513 21.7859 0.640977 21.8692C0.73144 21.9525 0.854048 21.9995 0.981708 21.9995H21.7016C21.8297 21.9995 21.9518 21.9525 22.0428 21.8692C22.0869 21.8292 22.1221 21.7806 22.1464 21.7266C22.1706 21.6725 22.1834 21.6141 22.1837 21.5551V2.4445C22.1837 2.32681 22.1332 2.21365 22.0428 2.13037C21.9499 2.04595 21.8279 1.99937 21.7016 2.00001ZM14.9558 14.8885C14.9558 15.0062 14.9053 15.1194 14.8144 15.2027C14.7217 15.2869 14.6002 15.3335 14.4741 15.333H8.20962C8.08196 15.333 7.95936 15.286 7.86889 15.2027C7.82478 15.1627 7.78949 15.1141 7.76524 15.0601C7.74098 15.006 7.72828 14.9476 7.72792 14.8885V9.11101C7.72792 8.99333 7.77843 8.88017 7.86889 8.79688C7.95936 8.71314 8.08196 8.66652 8.20962 8.66652H14.4741C14.6018 8.66652 14.7244 8.71314 14.8144 8.79688C14.8586 8.83684 14.894 8.88536 14.9183 8.93941C14.9427 8.99346 14.9554 9.05188 14.9558 9.11101V14.8885ZM65.0783 8.66743H58.8138C58.5474 8.66743 58.3316 8.86659 58.3316 9.11192V14.8894C58.3316 15.1348 58.5474 15.3339 58.8138 15.3339H65.0778C65.3441 15.3339 65.56 15.1348 65.56 14.8894V9.11192C65.56 8.86614 65.3441 8.66743 65.0778 8.66743H65.0783ZM57.8517 2.00001H51.5877C51.3213 2.00001 51.1055 2.19917 51.1055 2.44495V8.22248C51.1055 8.46781 51.3213 8.66697 51.5877 8.66697H57.8513C58.1176 8.66697 58.3334 8.46781 58.3334 8.22248V2.44495C58.3334 2.19917 58.1176 2.00046 57.8513 2.00046L57.8517 2.00001ZM72.3099 2.00001H66.0453C65.7795 2.00001 65.5636 2.19917 65.5636 2.44495V8.22248C65.5636 8.46781 65.7795 8.66697 66.0458 8.66697H72.3094C72.5757 8.66697 72.7916 8.46781 72.7916 8.22248V2.44495C72.7916 2.19917 72.5757 2.00046 72.3094 2.00046L72.3099 2.00001ZM57.8517 15.3335H51.5877C51.3213 15.3335 51.1055 15.5326 51.1055 15.778V21.556C51.1055 21.8013 51.3213 22 51.5877 22H57.8513C58.1176 22 58.3334 21.8008 58.3334 21.556V15.778C58.3334 15.5326 58.1181 15.3335 57.8517 15.3335ZM72.3099 15.3335H66.0453C65.7795 15.3335 65.5636 15.5326 65.5636 15.778V21.556C65.5636 21.8013 65.7795 22 66.0458 22H72.3094C72.5757 22 72.7916 21.8008 72.7916 21.556V15.778C72.7916 15.5326 72.5757 15.3335 72.3094 15.3335H72.3099ZM47.0011 2.00001H40.7375C40.4712 2.00001 40.2554 2.19917 40.2554 2.44495V8.22248C40.2554 8.46781 40.4712 8.66697 40.7375 8.66697H47.0011C47.2675 8.66697 47.4833 8.46781 47.4833 8.22248V2.44495C47.4833 2.19917 47.2675 2.00046 47.0011 2.00046V2.00001ZM47.0011 15.3335H40.7375C40.4712 15.3335 40.2554 15.5326 40.2554 15.778V21.556C40.2554 21.8013 40.4712 22 40.7375 22H47.0011C47.2675 22 47.4833 21.8008 47.4833 21.556V15.778C47.4833 15.5326 47.2675 15.3335 47.0011 15.3335ZM40.2535 9.10604C40.2535 8.98835 40.2021 8.87519 40.1121 8.79145C40.0193 8.70726 39.8975 8.66085 39.7714 8.66154H33.0252V2.4445C33.0252 2.32681 32.9747 2.21365 32.8842 2.13037C32.7914 2.04601 32.6697 1.99944 32.5435 2.00001H26.2794C26.1513 2.00001 26.0287 2.04663 25.9382 2.13037C25.8941 2.17039 25.8588 2.21893 25.8346 2.27297C25.8103 2.32702 25.7976 2.38541 25.7972 2.4445V21.5451C25.7972 21.6628 25.8478 21.7759 25.9382 21.8592C26.0287 21.9425 26.1513 21.9896 26.2794 21.9896H32.543C32.6711 21.9896 32.7937 21.9425 32.8842 21.8592C32.9747 21.7759 33.0252 21.6628 33.0252 21.5451V15.3281H39.7709C39.899 15.3281 40.0216 15.281 40.1121 15.1977C40.1562 15.1577 40.1915 15.1091 40.2157 15.0551C40.24 15.001 40.2527 14.9427 40.2531 14.8836L40.2535 9.10604Z" fill="#FFFFDF"/>
</g>
<defs>
<clipPath id="clip0_2242_22567">
<rect width="73" height="24" fill="white" transform="translate(0.5)"/>
</clipPath>
</defs>
</svg>
