<svg width="85" height="24" viewBox="0 0 85 24" fill="none" xmlns="http://www.w3.org/2000/svg">
<path fill-rule="evenodd" clip-rule="evenodd" d="M7.4652 1.21828C7.74646 0.93702 8.12148 0.749512 8.4965 0.749512H11.2154C11.5904 0.749512 11.7779 1.12453 11.4966 1.40579L6.15264 7.21855H9.15278L12.1529 10.4062H6.15264L12.1529 16.8752H8.4965C8.12148 16.8752 7.65271 16.6877 7.37145 16.4065L1.27743 9.84367C0.808656 9.28114 0.808656 8.3436 1.37118 7.78108L7.4652 1.21828ZM37.7478 11.5312C37.1853 10.7812 36.4352 10.3124 35.5914 10.1249C36.0602 9.93742 36.529 9.46865 36.8102 8.90612C37.1853 8.3436 37.3728 7.59357 37.3728 6.84353C37.3728 5.99975 37.1853 5.34347 36.8102 4.68719C36.529 4.03091 35.9664 3.56214 35.2164 3.18712C34.5601 2.8121 33.7164 2.6246 32.6851 2.6246H27.1536C27.0598 2.6246 26.966 2.71835 26.966 2.71835C26.8723 2.8121 26.8723 2.90586 26.8723 2.99961V18.2815C26.8723 18.3753 26.8723 18.469 26.966 18.5628C27.0598 18.6566 27.1536 18.6566 27.2473 18.6566H32.7788C34.7476 18.6566 36.2477 18.2815 37.1853 17.5315C38.2165 16.7815 38.6853 15.5627 38.6853 14.0626C38.6853 13.1251 38.4041 12.2813 37.7478 11.5312ZM32.4038 5.81224C33.6226 5.81224 34.1851 6.37476 34.1851 7.3123C34.1851 7.78107 33.9976 8.24985 33.7163 8.53111C33.4351 8.81237 32.9663 8.90612 32.4038 8.90612H30.3412V5.81224H32.4038ZM34.5601 15.0939C34.0914 15.3752 33.5288 15.5627 32.8726 15.5627H30.3412V11.8125H32.8726C33.6226 11.8125 34.1851 12 34.5601 12.2813C35.0289 12.5625 35.2164 13.0313 35.2164 13.6876C35.2164 14.2501 34.9352 14.8126 34.5601 15.0939ZM41.5917 6.37476C41.123 6.37476 40.6542 6.18725 40.2792 5.81224C39.9979 5.43722 39.8104 5.0622 39.8104 4.49968C39.8104 3.93715 39.9979 3.56214 40.3729 3.18712C40.6542 2.8121 41.123 2.6246 41.5917 2.6246C42.0605 2.6246 42.5293 2.8121 42.9043 3.18712C43.2793 3.56214 43.4668 4.03091 43.4668 4.49968C43.4668 4.96845 43.2793 5.43722 42.9043 5.81224C42.5293 6.18725 42.1543 6.37476 41.5917 6.37476ZM39.9042 7.59357C39.9042 7.49981 39.9042 7.40606 39.9979 7.3123H40.2792H42.9981C43.0918 7.3123 43.1856 7.3123 43.2793 7.40606C43.3731 7.49981 43.3731 7.59357 43.3731 7.68732V18.3753C43.3731 18.4691 43.3731 18.5628 43.2793 18.6566C43.1856 18.7503 43.0918 18.7503 42.9981 18.7503H40.2792C40.1854 18.7503 40.0917 18.7503 39.9979 18.6566C39.9042 18.5628 39.9042 18.4691 39.9042 18.3753V7.59357ZM52.186 7.40606C52.0922 7.3123 51.9985 7.3123 51.9047 7.3123H50.2171V4.40592C50.2171 4.31217 50.2171 4.21842 50.1234 4.12466C50.0296 4.03091 49.9359 4.03091 49.8421 4.03091H47.1232C47.0295 4.03091 46.9357 4.03091 46.842 4.12466C46.7482 4.21842 46.7482 4.31217 46.7482 4.40592V7.3123H44.8731H44.5919C44.4981 7.40606 44.4981 7.49981 44.4981 7.59357V9.65616C44.4981 9.74991 44.4981 9.84367 44.5919 9.93742C44.6856 10.0312 44.7794 10.0312 44.8731 10.0312H46.7482V18.3753V18.6566C46.842 18.7503 46.9357 18.7503 47.0295 18.7503H49.7484C49.8421 18.7503 49.9359 18.7503 50.0296 18.6566C50.1234 18.5628 50.1234 18.469 50.1234 18.3753V10.1249H51.9047C51.9985 10.1249 52.0922 10.1249 52.186 10.0312C52.2797 9.93742 52.2797 9.84367 52.2797 9.74991V7.68732C52.2797 7.59357 52.2797 7.49981 52.186 7.40606ZM84.9061 7.40606C84.8123 7.3123 84.7186 7.3123 84.6248 7.3123H82.8435V4.40592C82.8435 4.31217 82.8435 4.21842 82.7497 4.12466C82.656 4.03091 82.5622 4.03091 82.4685 4.03091H79.7496C79.6558 4.03091 79.5621 4.03091 79.4683 4.12466C79.3746 4.21842 79.3746 4.31217 79.3746 4.40592V7.3123H77.5933H77.312C77.2182 7.40606 77.2182 7.49981 77.2182 7.59357V9.65616C77.2182 9.74991 77.2182 9.84367 77.312 9.93742C77.4057 10.0312 77.4995 10.0312 77.5933 10.0312H79.3746V18.3753C79.3746 18.469 79.3746 18.5628 79.4683 18.6566C79.5621 18.7503 79.6558 18.7503 79.7496 18.7503H82.4685C82.5622 18.7503 82.656 18.7503 82.7497 18.6566C82.8435 18.5628 82.8435 18.469 82.8435 18.3753V10.1249H84.6248C84.7186 10.1249 84.8123 10.1249 84.9061 10.0312C84.9998 9.93742 84.9998 9.84367 84.9998 9.74991V7.68732C84.9998 7.59357 84.9998 7.49981 84.9061 7.40606ZM76.6557 13.9689C76.7495 13.6876 76.8432 13.3126 76.8432 12.8438C76.8432 11.8125 76.6557 10.875 76.2807 10.1249C75.8119 9.28114 75.2494 8.53111 74.4056 8.06234C73.6556 7.59357 72.718 7.3123 71.6867 7.3123C70.5617 7.3123 69.6241 7.49981 68.7804 8.06234C67.9366 8.53111 67.1865 9.28114 66.7178 10.1249C66.249 10.9687 65.9677 12 65.9677 13.0313C65.9677 14.0626 66.249 15.0939 66.7178 15.9377C67.1865 16.8752 67.9366 17.5315 68.7804 18.094C69.7179 18.5628 70.7492 18.8441 71.8743 18.8441C72.718 18.8441 73.4681 18.6566 74.1243 18.3753C74.8744 18.0003 75.4369 17.6253 75.9994 17.0627C76.0932 16.969 76.0932 16.8752 76.0932 16.7815C76.0932 16.7416 76.0932 16.7187 76.086 16.6984C76.0763 16.6708 76.0533 16.6479 75.9994 16.594L74.7806 15.4689C74.6869 15.3752 74.5931 15.3752 74.4994 15.3752C74.4056 15.3752 74.3119 15.3752 74.2181 15.4689C73.8431 15.7502 73.4681 15.9377 73.093 16.0314C72.8118 16.1252 72.4368 16.1252 72.0618 16.1252C71.3117 16.1252 70.6554 15.9377 70.1867 15.6564C69.7179 15.3752 69.4366 14.9064 69.2491 14.2501H75.9994C76.3744 14.2501 76.562 14.1564 76.6557 13.9689ZM70.0929 10.5937C70.4679 10.3124 71.0305 10.1249 71.593 10.1249C72.1555 10.1249 72.6243 10.3124 73.093 10.5937C73.4681 10.875 73.7493 11.3437 73.8431 12H69.2491C69.4366 11.3437 69.6242 10.875 70.0929 10.5937ZM64.4679 7.49984C64.5616 7.49984 64.6554 7.49984 64.7491 7.59359C64.8429 7.68734 64.8429 7.7811 64.8429 7.87485V18.6566C64.8429 19.7816 64.5616 20.7192 63.9053 21.3755C63.3428 22.1255 62.5928 22.5943 61.6552 22.8755L61.4391 22.919C60.586 23.0909 59.7941 23.2505 58.8426 23.2505C57.9051 23.2505 56.9675 23.1568 56.1237 22.8755C55.2799 22.5943 54.5299 22.2192 53.9674 21.8442C53.8736 21.7505 53.8736 21.6567 53.8736 21.563V21.3755L54.7174 19.7816C54.8112 19.6879 54.9049 19.5941 54.9987 19.5941H55.1862C55.655 19.8754 56.2175 20.1566 56.78 20.2504C57.3425 20.3442 57.9051 20.4379 58.6551 20.4379C59.4051 20.4379 60.1552 20.2504 60.7177 19.9691C61.374 19.6879 61.6552 19.1254 61.6552 18.3753V17.344C60.8114 18.3753 59.6864 18.8441 58.3738 18.8441C57.3425 18.8441 56.405 18.5628 55.655 18.0941C54.8112 17.5315 54.1549 16.8753 53.6861 15.9377C53.2174 15.0939 53.0298 14.0626 53.0298 13.0313C53.0298 12 53.2174 11.0625 53.6861 10.125C54.2486 9.18741 54.8112 8.53113 55.655 7.96861C56.4987 7.40608 57.3425 7.21857 58.3738 7.21857C59.5926 7.21857 60.6239 7.68734 61.5615 8.71864L61.6552 7.7811C61.6552 7.59359 61.8427 7.40608 62.0303 7.40608H64.4679V7.49984ZM58.8426 15.6564C59.4989 15.6564 60.1552 15.3752 60.6239 14.8127C61.0927 14.2501 61.374 13.6876 61.374 12.9376C61.374 12.1875 61.0927 11.625 60.6239 11.0625C60.1552 10.5 59.5926 10.2187 58.8426 10.2187C58.0926 10.2187 57.53 10.5 57.0613 10.9687C56.5925 11.4375 56.3112 12.0938 56.3112 12.8438C56.3112 13.5939 56.4988 14.2501 56.9675 14.7189C57.53 15.3752 58.0926 15.6564 58.8426 15.6564ZM14.6842 23.2506C15.153 23.2506 15.528 23.0631 15.8093 22.7818L21.997 16.219C22.5596 15.6565 22.5596 14.7189 21.997 14.1564L15.903 7.59361C15.6217 7.31235 15.153 7.12484 14.778 7.12484H11.1215L17.1218 13.5939H11.1215L14.1217 16.7815H17.1218L11.6841 22.5943C11.4028 22.8755 11.5903 23.2506 11.9653 23.2506H14.6842Z" fill="#1EA2B4"/>
</svg>
