<svg width="20" height="20" viewBox="0 0 20 20" fill="none" xmlns="http://www.w3.org/2000/svg">
<g id="BNB" clip-path="url(#clip0_4020_3115)">
<path id="binancedex" d="M12.1372 16.6787V18.8748L10.1803 20.0001L8.27911 18.8748V16.6787L10.1803 17.804L12.1372 16.6787ZM1.6665 9.08314L3.56774 10.2084V13.9744L6.84159 15.8892V18.0853L1.6665 15.0997V9.08314ZM18.6942 9.08314V15.1088L13.4635 18.0944V15.8983L16.7373 13.9835V10.2175L18.6942 9.08314ZM13.4542 6.09755L15.4111 7.22282V9.41891L12.1372 11.3337V15.1542L10.236 16.2794L8.34403 15.1542V11.3246L4.94962 9.40984V7.21374L6.90651 6.08847L10.1803 8.00325L13.4542 6.09755ZM4.94962 10.9888L6.85086 12.1141V14.3102L4.94962 13.1849V10.9888ZM15.4111 10.9888V13.1849L13.5098 14.3102V12.1141L15.4111 10.9888ZM3.56774 4.18277L5.52463 5.30804L3.56774 6.43331V8.62941L1.6665 7.50414V5.30804L3.56774 4.18277ZM16.793 4.18277L18.7498 5.30804V7.50414L16.793 8.62941V6.43331L14.8917 5.30804L16.793 4.18277ZM10.1803 4.18277L12.1372 5.30804L10.1803 6.43331L8.27911 5.30804L10.1803 4.18277ZM10.1803 0.416748L15.4111 3.40234L13.5098 4.52761L10.236 2.61284L6.89723 4.52761L4.99599 3.40234L10.1803 0.416748Z" fill="#FFB932"/>
</g>
<defs>
<clipPath id="clip0_4020_3115">
<rect width="20" height="20" fill="white"/>
</clipPath>
</defs>
</svg>
