<svg width="72" height="24" viewBox="0 0 72 24" fill="none" xmlns="http://www.w3.org/2000/svg">
<g clip-path="url(#clip0_4024_2991)">
<path d="M51.3101 18.5028V0H55.0281V18.5028H51.3101Z" fill="#F7A600"/>
<path d="M7.98605 23.9972H0.0170898V5.49731H7.66637C11.3816 5.49731 13.5502 7.52565 13.5502 10.6949C13.5502 12.7492 12.1592 14.0716 11.1944 14.5153C12.3435 15.0339 13.8152 16.2037 13.8152 18.6728C13.8152 22.1244 11.3816 23.9972 7.98605 23.9972ZM7.37261 8.72132H3.73229V12.9825H7.37261C8.95085 12.9825 9.83501 12.124 9.83501 10.8505C9.83501 9.57703 8.95085 8.72132 7.37261 8.72132ZM7.61165 16.2296H3.73229V20.7761H7.60877C9.29645 20.7761 10.0971 19.736 10.0971 18.4884C10.0971 17.2409 9.29357 16.2296 7.61165 16.2296Z" fill="white"/>
<path d="M25.1535 16.4082V23.9972H21.4613V16.4082L15.7388 5.49731H19.7794L23.3333 12.9537L26.8383 5.49731H30.876L25.1535 16.4082Z" fill="white"/>
<path d="M41.4143 23.9972H33.4453V5.49731H41.0946C44.8098 5.49731 46.9784 7.52565 46.9784 10.6949C46.9784 12.7492 45.5874 14.0716 44.6226 14.5153C45.7717 15.0339 47.2434 16.2037 47.2434 18.6728C47.2434 22.1244 44.8127 23.9972 41.4143 23.9972ZM40.8008 8.72132H37.1634V12.9825H40.8008C42.3791 12.9825 43.2632 12.124 43.2632 10.8505C43.2603 9.57703 42.3762 8.72132 40.8008 8.72132ZM41.0399 16.2296H37.1634V20.7761H41.0399C42.7276 20.7761 43.5282 19.736 43.5282 18.4884C43.5282 17.2409 42.7247 16.2296 41.0399 16.2296Z" fill="white"/>
<path d="M67.0087 8.72132V24.0001H63.2907V8.72132H58.3169V5.49731H71.9825V8.72132H67.0087Z" fill="white"/>
</g>
<defs>
<clipPath id="clip0_4024_2991">
<rect width="72" height="24" fill="white"/>
</clipPath>
</defs>
</svg>
