<svg width="88" height="20" viewBox="0 0 88 20" fill="none" xmlns="http://www.w3.org/2000/svg">
<g clip-path="url(#clip0_4024_3010)">
<path fill-rule="evenodd" clip-rule="evenodd" d="M72.8533 5.94781H75.3525V3.46963H72.8533V5.94781ZM59.5688 10.077C60.0475 8.82041 61.269 7.92687 62.7016 7.92687C64.1343 7.92687 65.3592 8.82041 65.8344 10.077H59.5688ZM62.7016 5.61971C59.5688 5.61971 57.0274 8.13978 57.0274 11.2462C57.0274 14.3527 59.5688 16.8728 62.7016 16.8728C64.8523 16.8728 66.7215 15.686 67.6824 13.9408L65.588 12.9321C65.0037 13.9129 63.9301 14.5691 62.7016 14.5691C61.1493 14.5691 59.8434 13.522 59.4632 12.0979H65.94V12.1014H68.3125C68.3547 11.8222 68.3759 11.5359 68.3759 11.2462C68.3759 8.13978 65.8379 5.61971 62.7016 5.61971ZM69.0376 16.5726H71.5368V14.0944H69.0376V16.5726ZM72.8533 16.5726H75.3525V7.03682H72.8533V16.5726ZM82.3256 14.5691C80.4741 14.5691 78.9746 13.0822 78.9746 11.2462C78.9746 9.41029 80.4741 7.92338 82.3256 7.92338C84.1771 7.92338 85.6767 9.41029 85.6767 11.2462C85.6767 13.0822 84.1771 14.5691 82.3256 14.5691ZM82.3256 5.61971C79.1928 5.61971 76.6514 8.13978 76.6514 11.2462C76.6514 14.3527 79.1928 16.8728 82.3256 16.8728C85.4584 16.8728 87.9999 14.3527 87.9999 11.2462C87.9999 8.13978 85.4584 5.61971 82.3256 5.61971ZM30.0747 9.17294V11.7349H33.5701C33.3871 12.4679 33.028 13.1241 32.5106 13.6476C31.7291 14.44 30.6485 14.8728 29.4658 14.8728C27.0088 14.8728 25.0095 12.8902 25.0095 10.4504C25.0095 8.01413 27.0088 6.02809 29.4658 6.02809C30.7823 6.02809 31.9931 6.58656 32.8309 7.54991L34.8303 5.92687C33.5032 4.38411 31.5355 3.46265 29.4658 3.46265C25.5832 3.46265 22.4258 6.59703 22.4258 10.4469C22.4258 14.2969 25.5832 17.4312 29.4658 17.4312C31.3525 17.4312 33.0879 16.7576 34.3586 15.4696C35.4251 14.3876 36.1327 12.8797 36.2664 11.3719C36.3333 10.6354 36.3403 9.90244 36.2981 9.16596L30.0747 9.17294ZM42.8031 14.5691C40.9551 14.5691 39.452 13.0822 39.452 11.2462C39.452 9.41029 40.9515 7.92338 42.8031 7.92338C44.6546 7.92338 46.1541 9.41029 46.1541 11.2462C46.1541 13.0822 44.6546 14.5691 42.8031 14.5691ZM46.1541 6.7157C45.2143 6.03158 44.0562 5.63019 42.8031 5.63019C39.6703 5.63019 37.1323 8.15026 37.1323 11.2567C37.1323 14.3632 39.6738 16.8832 42.8031 16.8832C44.0562 16.8832 45.2143 16.4784 46.1541 15.7977V16.5761H48.4773V5.93734H46.1541V6.7157ZM53.4616 3.46963H51.1384V5.94781H49.748V8.12233H51.1384V13.8117C51.1384 14.3981 51.2123 14.8937 51.3602 15.2811C51.5045 15.6651 51.7298 15.9653 51.9938 16.1991C52.2613 16.4365 52.5746 16.6215 52.9477 16.7297C53.3279 16.8344 53.7432 16.8763 54.1867 16.8763C54.6443 16.8763 55.0527 16.8309 55.3976 16.7366C55.7215 16.6494 56.0312 16.5272 56.3163 16.3736V14.6215C55.8587 14.8169 55.4293 14.8902 54.94 14.9112C54.4226 14.9356 54.1199 14.789 53.8664 14.5482C53.5989 14.2969 53.4581 13.9688 53.4581 13.4208V8.12233H56.3163V5.94781H53.4581V3.46963H53.4616Z" fill="white"/>
<path fill-rule="evenodd" clip-rule="evenodd" d="M10.0742 15.494C7.01536 15.494 4.53376 13.0333 4.53376 10.0001C4.53376 6.96694 7.01536 4.50621 10.0742 4.50621V0.00708008C4.50912 0.00708008 0 4.48177 0 10.0001C0 15.5184 4.50912 19.9896 10.0742 19.9896C15.6358 19.9896 20.1485 15.5149 20.1485 10.0001H15.6147C15.6147 13.0367 13.1331 15.494 10.0742 15.494Z" fill="#2354E6"/>
<path fill-rule="evenodd" clip-rule="evenodd" d="M10.0742 9.99999H15.6147V4.5061H10.0742V9.99999Z" fill="#17E6A1"/>
</g>
<defs>
<clipPath id="clip0_4024_3010">
<rect width="88" height="20" fill="white"/>
</clipPath>
</defs>
</svg>
