<svg width="68" height="26" viewBox="0 0 68 26" fill="none" xmlns="http://www.w3.org/2000/svg">
<path d="M11.2731 7.98303C11.3486 4.16225 9.1732 0.820945 8.02507 0.0118393C8.02507 0.0118393 7.91932 -0.0480958 7.91932 0.101739C7.79846 7.33874 4.05192 9.28659 2.02758 11.9237C-2.48943 17.8122 1.27222 24.5397 6.1669 25.8133C6.25754 25.8283 6.46904 25.9032 6.90715 25.9931C7.13375 26.0381 7.19418 25.8583 7.028 25.5736C6.43883 24.5697 5.39644 22.8616 5.20005 20.674C4.73173 15.6096 11.1824 12.4331 11.2731 7.98303Z" fill="white"/>
<path d="M13.7354 10.4254C13.6901 10.3955 13.6448 10.3955 13.6297 10.4554C13.5239 11.3694 12.5722 13.2873 11.3032 15.0703C7.05813 21.0787 9.18822 23.8057 10.85 25.7086C11.1521 26.0532 11.3032 25.9783 11.4694 25.7385C11.6205 25.4988 11.8471 25.1991 12.829 24.7346C12.9801 24.6597 16.6964 22.7119 17.0892 18.2618C17.5122 13.9466 14.7174 11.2196 13.7354 10.4254Z" fill="#008CD6"/>
<path d="M35.8221 9.33154V25.1541H32.3928V18.7561H25.8212V25.1541H22.3164V9.33154H25.8212V15.7295H32.3928V9.33154H35.8221Z" fill="white"/>
<path d="M51.639 9.33154V12.4631H50.0074H46.7292V25.1541H43.2093V12.4631H40.0066H38.375V9.33154H51.639Z" fill="white"/>
<path fill-rule="evenodd" clip-rule="evenodd" d="M64.1023 25.169L60.0839 19.6701L56.0956 25.1541H52.198L58.12 17.078L52.5304 9.33154H56.428L68 25.169H64.1023Z" fill="white"/>
<path d="M61.1716 12.8676L63.1053 15.5347L67.6828 9.33154H63.8003L61.1716 12.8676Z" fill="#008CD6"/>
</svg>
