<svg width="78" height="18" viewBox="0 0 78 18" fill="none" xmlns="http://www.w3.org/2000/svg">
<g clip-path="url(#clip0_4024_2976)">
<path d="M60.9519 8.99171C60.9519 8.53263 60.9519 8.10079 60.9371 7.70198C60.927 7.32575 60.89 6.95074 60.8262 6.57987C60.7666 6.24122 60.6613 5.91232 60.5134 5.60226C60.3571 5.28257 60.1484 4.9917 59.8958 4.74189C59.5377 4.37291 59.1115 4.0776 58.6411 3.87244C58.1322 3.66517 57.5871 3.56241 57.0381 3.57024C56.487 3.56308 55.94 3.66579 55.4286 3.87244C54.9555 4.0748 54.5266 4.36883 54.1665 4.73776C53.9144 4.98742 53.7065 5.27835 53.5514 5.59813C53.4047 5.90826 53.3011 6.23722 53.2435 6.57574C53.1812 6.94672 53.1455 7.32173 53.1367 7.69785C53.1269 8.09666 53.1219 8.5285 53.1244 8.98758C53.1269 9.44666 53.1244 9.87519 53.1367 10.2765C53.1455 10.6526 53.1812 11.0276 53.2435 11.3986C53.3011 11.7371 53.4047 12.0661 53.5514 12.3762C53.7071 12.6956 53.915 12.9864 54.1665 13.2366C54.526 13.6058 54.9551 13.8994 55.4286 14.1002C55.9397 14.3082 56.4869 14.4115 57.0381 14.4041C57.5873 14.4122 58.1325 14.3089 58.6411 14.1002C59.1116 13.8978 59.5379 13.6044 59.8958 13.2366C60.1478 12.9863 60.3565 12.6955 60.5134 12.3762C60.6613 12.0661 60.7666 11.7372 60.8262 11.3986C60.8893 11.0288 60.9258 10.6549 60.9354 10.2798C60.9478 9.8785 60.9535 9.44914 60.9502 8.99088L60.9519 8.99171ZM58.8825 8.99171C58.8825 9.50033 58.8751 9.92391 58.8579 10.2608C58.8482 10.5375 58.8207 10.8133 58.7757 11.0865C58.745 11.2685 58.6897 11.4454 58.6115 11.6124C58.548 11.7471 58.465 11.8714 58.3652 11.9815C58.211 12.159 58.0198 12.2999 57.8051 12.3944C57.5636 12.4983 57.3033 12.5511 57.0406 12.5496C56.7766 12.5508 56.5151 12.498 56.272 12.3944C56.0521 12.3017 55.8557 12.1606 55.6972 11.9815C55.5967 11.8719 55.5136 11.7475 55.4508 11.6124C55.3748 11.4452 55.3223 11.2682 55.2948 11.0865C55.2509 10.8132 55.2235 10.5374 55.2127 10.2608C55.1979 9.92391 55.1905 9.50088 55.1905 8.99171C55.1905 8.48308 55.1979 8.05868 55.2127 7.7218C55.2235 7.44516 55.251 7.16944 55.2948 6.89611C55.3223 6.71436 55.3748 6.53734 55.4508 6.37015C55.5138 6.23524 55.5969 6.11078 55.6972 6.00107C55.8559 5.82222 56.0522 5.68119 56.272 5.58822C56.5147 5.48346 56.7765 5.4306 57.0406 5.43299C57.3034 5.43025 57.5639 5.48314 57.8051 5.58822C58.0196 5.68294 58.2108 5.82388 58.3652 6.00107C58.4648 6.11128 58.5478 6.23564 58.6115 6.37015C58.6897 6.53717 58.745 6.71412 58.7757 6.89611C58.8207 7.16929 58.8481 7.44509 58.8579 7.7218C58.8759 8.05786 58.8825 8.48226 58.8825 8.99171Z" fill="#23AF91"/>
<path d="M77.441 3.84605C77.4401 3.74565 77.3594 3.66447 77.2595 3.66357H75.5523C75.4523 3.66403 75.3713 3.74546 75.3708 3.84605V10.1873L71.2075 3.71477C71.1795 3.67101 71.1549 3.66357 71.0933 3.66357H69.5101C69.4104 3.66491 69.3299 3.74583 69.3286 3.84605V14.1358C69.3299 14.2359 69.4106 14.3165 69.5101 14.3174H71.2165C71.3161 14.317 71.3967 14.2359 71.3972 14.1358V7.77798L75.5613 14.2654C75.5901 14.3092 75.6131 14.3166 75.6755 14.3166H77.2579C77.3576 14.3162 77.4385 14.2352 77.4394 14.1349L77.441 3.84605Z" fill="#23AF91"/>
<path d="M65.997 3.84605C65.9966 3.74546 65.9156 3.66403 65.8155 3.66357H64.1099C64.0099 3.66403 63.9289 3.74546 63.9285 3.84605V14.1349C63.9289 14.2355 64.0099 14.317 64.1099 14.3174H65.8155C65.9156 14.317 65.9966 14.2355 65.997 14.1349V3.84605Z" fill="#23AF91"/>
<path d="M45.5795 8.99163C45.5795 8.4797 45.5852 8.05364 45.6 7.71429C45.61 7.43759 45.6375 7.16181 45.6821 6.8886C45.8398 5.97209 46.5378 5.43126 47.4288 5.43126C48.0102 5.43621 48.5373 5.65254 48.874 6.14465C49.0265 6.3744 49.1377 6.62928 49.2025 6.89768C49.2075 6.92595 49.2332 6.94568 49.2616 6.94309H51.2694C51.2981 6.94309 51.3088 6.92328 51.3039 6.8952C51.0846 5.64594 50.4219 4.52383 49.2509 3.96814C48.6754 3.70021 48.0473 3.56616 47.4132 3.57594C46.2827 3.57594 45.3304 3.96511 44.5563 4.74346C44.1143 5.17656 43.8127 5.7337 43.6908 6.34199C43.5725 6.94089 43.5128 7.82383 43.5117 8.9908C43.5107 10.1578 43.5703 11.0404 43.6908 11.6388C43.8117 12.2479 44.1124 12.8061 44.5538 13.2406C45.3274 14.0184 46.2797 14.4073 47.4107 14.4073C48.0447 14.417 48.6728 14.2832 49.2485 14.0159C50.4195 13.4602 51.0822 12.3381 51.3014 11.0889C51.3064 11.06 51.2957 11.041 51.2669 11.041H49.2583C49.2298 11.038 49.2038 11.0579 49.1992 11.0864C49.1342 11.3545 49.0231 11.6091 48.8707 11.8386C48.5341 12.334 48.0069 12.5479 47.4255 12.552C46.5345 12.552 45.8365 12.012 45.6788 11.0955C45.6342 10.8223 45.6068 10.5465 45.5967 10.2698C45.5852 9.92878 45.5795 9.5019 45.5795 8.99163Z" fill="#23AF91"/>
<path d="M24.3732 3.84605C24.3728 3.74546 24.2918 3.66403 24.1917 3.66357H22.4862C22.3861 3.66403 22.3051 3.74546 22.3047 3.84605V14.1358C22.3056 14.236 22.3864 14.317 22.4862 14.3175H24.1917C24.2915 14.317 24.3723 14.236 24.3732 14.1358V11.1154L25.7421 9.46981L28.5538 14.2629C28.5755 14.2983 28.6144 14.3191 28.6557 14.3175H30.7283C30.8236 14.3175 30.8408 14.258 30.7932 14.1762L27.1119 7.90101L30.4893 3.82706C30.5575 3.74449 30.5288 3.66605 30.422 3.66605H28.1564C28.1288 3.66442 28.1023 3.67683 28.0858 3.69908L24.3732 8.17596V3.84605Z" fill="#23AF91"/>
<path d="M36.7993 12.5521C35.8394 12.5521 34.9689 11.6587 34.9689 10.5919V3.84605C34.9685 3.74546 34.8875 3.66403 34.7875 3.66357H33.0819C32.9818 3.66403 32.9008 3.74546 32.9004 3.84605V10.5655C32.9004 12.9146 34.6479 14.4074 36.7993 14.4074C38.9508 14.4074 40.6983 12.9146 40.6983 10.5655V3.84605C40.6974 3.74565 40.6167 3.66447 40.5168 3.66357H38.8104C38.7107 3.66448 38.6302 3.74578 38.6297 3.84605V10.5919C38.6297 11.6579 37.7585 12.5521 36.7993 12.5521Z" fill="#23AF91"/>
<path fill-rule="evenodd" clip-rule="evenodd" d="M5.16027 8.99167L10.4552 14.3165L13.7974 10.956C14.395 10.4149 15.3093 10.439 15.878 11.0108C16.4466 11.5825 16.4706 12.5019 15.9325 13.1028L11.5219 17.5384C10.9295 18.1242 9.9793 18.1242 9.38686 17.5384L3.02357 11.1385V14.9424C3.02357 15.7819 2.34672 16.4625 1.51179 16.4625C0.676849 16.4625 0 15.7819 0 14.9424V3.03598C0 2.19646 0.676849 1.51589 1.51179 1.51589C2.34672 1.51589 3.02357 2.19646 3.02357 3.03598V6.83992L9.38604 0.441667C9.9783 -0.144618 10.9288 -0.144618 11.5211 0.441667L15.9349 4.87644C16.473 5.47735 16.4491 6.39668 15.8804 6.96845C15.3118 7.54023 14.3975 7.5643 13.7999 7.02323L10.4577 3.66268L5.16027 8.99167ZM10.4577 7.46992C9.84548 7.46959 9.29338 7.84014 9.05887 8.40875C8.82436 8.97736 8.95364 9.63202 9.38641 10.0674C9.81918 10.5028 10.4702 10.6331 11.0358 10.3977C11.6015 10.1622 11.9703 9.60723 11.9703 8.99167C11.9705 8.58808 11.8113 8.20093 11.5276 7.91539C11.2439 7.62985 10.8591 7.46932 10.4577 7.4691V7.46992Z" fill="#23AF91"/>
</g>
<defs>
<clipPath id="clip0_4024_2976">
<rect width="78" height="18" fill="white"/>
</clipPath>
</defs>
</svg>
