<svg width="92" height="30" viewBox="0 0 92 30" fill="none" xmlns="http://www.w3.org/2000/svg">
<path d="M52.9473 21.4734V8.54541H63.6962V9.36258C63.6962 10.0121 63.1724 10.5359 62.5228 10.5359H55.6083V13.9932H62.5228V15.9837H55.6083V19.4619H62.5228C63.1724 19.4619 63.6962 19.9858 63.6962 20.6353V21.4525L52.9473 21.4734Z" fill="white"/>
<path d="M79.1177 8.52441H76.5823C76.1214 8.52441 75.6814 8.73395 75.388 9.09015L72.3498 12.9455L69.2907 9.1111C68.9973 8.7549 68.5573 8.54537 68.0964 8.54537H65.561L70.6945 14.9989L65.561 21.4524H68.0964C68.5573 21.4524 68.9973 21.2429 69.2907 20.8867L72.3498 17.0733L75.4299 20.9286C75.7233 21.2848 76.1633 21.4943 76.6242 21.4943H79.1596L74.0051 15.0408L79.1177 8.52441Z" fill="white"/>
<path d="M44.524 20.0905L48.0441 13.9303V21.4315H50.7261V8.50349H49.0708C48.5469 8.50349 48.065 8.77588 47.8136 9.23685L43.602 16.9266L39.3905 9.23685C39.139 8.77588 38.6571 8.48254 38.1333 8.50349H36.457V21.4315H39.139V13.9303L42.6591 20.0905H44.524Z" fill="white"/>
<path d="M86.116 21.6202C82.4492 21.7041 79.411 18.7916 79.3481 15.1248C79.3481 15.0829 79.3481 15.0619 79.3481 15.02C79.3481 12.9876 79.9767 11.2904 81.1292 10.138C82.2816 8.98557 83.9788 8.37793 85.9903 8.37793C88.358 8.37793 90.2018 9.1951 91.5428 10.7875L90.7047 11.4999C90.1809 11.9399 89.4056 11.9609 88.8399 11.5418C88.0437 10.9551 87.0798 10.6618 86.095 10.7037C83.4549 10.7037 81.9044 12.2961 81.9044 14.9781C81.9044 17.6601 83.5178 19.3573 86.095 19.3573C87.0798 19.3783 88.0437 19.0849 88.8399 18.5192C89.4056 18.1001 90.1599 18.1211 90.7047 18.5611L91.5428 19.2735C90.2228 20.824 88.4208 21.6202 86.116 21.6202Z" fill="white"/>
<path d="M29.0317 18.6779L22.7515 7.7846C21.3748 5.51346 18.0175 5.49022 16.6885 7.88102L10.0946 19.21C8.86324 21.2871 10.3851 23.8952 12.8491 23.8952H26.0612C28.5484 23.8952 30.4083 21.214 29.0317 18.6779Z" fill="#3156AA"/>
<path d="M19.974 19.5237L19.5871 18.8476C19.2247 18.2191 18.4277 16.8669 18.4277 16.8669L13.1141 7.63942C11.7375 5.58668 8.47655 5.41707 7.09992 8.00187L0.916142 18.7024C-0.364061 20.9491 1.15778 23.8708 3.93542 23.8952H17.0755H22.6796H26.0125C22.6076 23.9196 21.5202 22.1561 19.974 19.5237Z" fill="#1972E2"/>
<path d="M19.975 19.5238L19.5881 18.8476C19.2257 18.2192 18.4287 16.8669 18.4287 16.8669L14.9982 10.8284L10.0703 19.2345C8.83884 21.3116 10.3607 23.9208 12.8235 23.9208H17.051H22.655H26.0124C22.583 23.8953 21.5201 22.1562 19.975 19.5238Z" fill="url(#paint0_linear_4024_3028)"/>
<defs>
<linearGradient id="paint0_linear_4024_3028" x1="8.63132" y1="15.421" x2="22.9437" y2="21.0487" gradientUnits="userSpaceOnUse">
<stop stop-color="#264CA2" stop-opacity="0"/>
<stop offset="1" stop-color="#234588"/>
</linearGradient>
</defs>
</svg>
