<svg width="66" height="20" viewBox="0 0 66 20" fill="none" xmlns="http://www.w3.org/2000/svg">
<path fill-rule="evenodd" clip-rule="evenodd" d="M19.392 0.10791H0.488388C0.371807 0.10791 0.259997 0.15419 0.177596 0.236679C0.0951063 0.31908 0.0488281 0.43089 0.0488281 0.547559V19.4511C0.0488281 19.5677 0.0951063 19.6795 0.177596 19.7619C0.259997 19.8444 0.371807 19.8907 0.488388 19.8907H19.392C19.5086 19.8907 19.6204 19.8444 19.7028 19.7619C19.7853 19.6795 19.8316 19.5677 19.8316 19.4511V0.547559C19.8316 0.43089 19.7853 0.31908 19.7028 0.236679C19.6204 0.15419 19.5086 0.10791 19.392 0.10791ZM13.2373 12.8568C13.2373 12.9734 13.191 13.0852 13.1085 13.1677C13.0261 13.2501 12.9143 13.2965 12.7978 13.2965H7.08268C6.9661 13.2965 6.85429 13.2501 6.7718 13.1677C6.6894 13.0852 6.64312 12.9734 6.64312 12.8568V7.14176C6.64312 7.02518 6.6894 6.91337 6.7718 6.83097C6.85429 6.74848 6.9661 6.7022 7.08268 6.7022H12.7978C12.9143 6.7022 13.0261 6.74848 13.1085 6.83097C13.191 6.91337 13.2373 7.02518 13.2373 7.14176V12.8568ZM58.9685 6.70289H53.2536C53.0108 6.70289 52.8139 6.89967 52.8139 7.14245V12.8575C52.8139 13.1003 53.0108 13.2972 53.2536 13.2972H58.9685C59.2113 13.2972 59.4082 13.1003 59.4082 12.8575V7.14245C59.4082 6.89967 59.2113 6.70289 58.9685 6.70289ZM46.6566 0.108428H52.3716C52.6145 0.108428 52.8113 0.305201 52.8113 0.548076V6.26307C52.8113 6.50585 52.6145 6.70271 52.3716 6.70271H46.6566C46.4138 6.70271 46.217 6.50585 46.217 6.26307V0.548076C46.217 0.305201 46.4138 0.108428 46.6566 0.108428ZM65.5602 0.108428H59.8451C59.6023 0.108428 59.4055 0.305201 59.4055 0.548076V6.26307C59.4055 6.50585 59.6023 6.70271 59.8451 6.70271H65.5602C65.803 6.70271 65.9998 6.50585 65.9998 6.26307V0.548076C65.9998 0.305201 65.803 0.108428 65.5602 0.108428ZM46.6566 13.2968H52.3716C52.6145 13.2968 52.8113 13.4936 52.8113 13.7364V19.4515C52.8113 19.6943 52.6145 19.8911 52.3716 19.8911H46.6566C46.4138 19.8911 46.217 19.6943 46.217 19.4515V13.7364C46.217 13.4936 46.4138 13.2968 46.6566 13.2968ZM65.5602 13.2968H59.8451C59.6023 13.2968 59.4055 13.4936 59.4055 13.7364V19.4515C59.4055 19.6943 59.6023 19.8911 59.8451 19.8911H65.5602C65.803 19.8911 65.9998 19.6943 65.9998 19.4515V13.7364C65.9998 13.4936 65.803 13.2968 65.5602 13.2968ZM36.7569 0.108428H42.4719C42.7147 0.108428 42.9116 0.305201 42.9116 0.548076V6.26307C42.9116 6.50585 42.7147 6.70271 42.4719 6.70271H36.7569C36.5142 6.70271 36.3173 6.50585 36.3173 6.26307V0.548076C36.3173 0.305201 36.5142 0.108428 36.7569 0.108428ZM42.4719 13.2968H36.7569C36.5142 13.2968 36.3173 13.4936 36.3173 13.7364V19.4515C36.3173 19.6943 36.5142 19.8911 36.7569 19.8911H42.4719C42.7147 19.8911 42.9116 19.6943 42.9116 19.4515V13.7364C42.9116 13.4936 42.7147 13.2968 42.4719 13.2968ZM36.1885 6.82602C36.2709 6.90842 36.3173 7.02023 36.3173 7.13681V12.8519C36.3173 12.9685 36.2709 13.0803 36.1885 13.1628C36.106 13.2452 35.9942 13.2915 35.8776 13.2915H29.723V19.4412C29.723 19.5578 29.6766 19.6696 29.5942 19.752C29.5117 19.8345 29.3999 19.8808 29.2833 19.8808H23.5683C23.4517 19.8808 23.3399 19.8345 23.2575 19.752C23.175 19.6696 23.1287 19.5578 23.1287 19.4412V0.547559C23.1287 0.43089 23.175 0.31908 23.2575 0.236679C23.3399 0.15419 23.4517 0.10791 23.5683 0.10791H29.2833C29.3999 0.10791 29.5117 0.15419 29.5942 0.236679C29.6766 0.31908 29.723 0.43089 29.723 0.547559V6.69725H35.8776C35.9942 6.69725 36.106 6.74353 36.1885 6.82602Z" fill="white"/>
</svg>
