<svg width="102" height="16" viewBox="0 0 102 16" fill="none" xmlns="http://www.w3.org/2000/svg">
<g clip-path="url(#clip0_4024_3040)">
<path d="M19.6686 12.3092C19.4314 12.3092 19.2637 12.2596 19.1655 12.1605C19.0755 12.0614 19.0305 11.9044 19.0305 11.6897V4.51615C19.0305 4.30139 19.0796 4.14446 19.1777 4.04535C19.2759 3.93797 19.4395 3.88428 19.6686 3.88428H22.6746C23.8198 3.88428 24.6623 4.12794 25.2023 4.61526C25.7421 5.10258 26.0121 5.82943 26.0121 6.79582C26.0121 7.75394 25.7421 8.47665 25.2023 8.96396C24.6705 9.44308 23.828 9.6826 22.6746 9.6826H21.509V11.6897C21.509 11.9044 21.46 12.0614 21.3618 12.1605C21.2636 12.2596 21.0959 12.3092 20.8587 12.3092H19.6686ZM22.4784 7.88609C22.8138 7.88609 23.0714 7.79524 23.2514 7.61352C23.4394 7.43181 23.5336 7.15924 23.5336 6.79582C23.5336 6.42413 23.4394 6.14743 23.2514 5.96572C23.0714 5.78401 22.8138 5.69315 22.4784 5.69315H21.509V7.88609H22.4784Z" fill="white"/>
<path d="M28.9097 12.4952C28.1408 12.4952 27.5232 12.2474 27.057 11.7518C26.5989 11.248 26.3699 10.5418 26.3699 9.63316C26.3699 8.93938 26.5253 8.33226 26.8361 7.81193C27.1551 7.29158 27.601 6.89098 28.1735 6.61015C28.7543 6.32106 29.421 6.17651 30.1735 6.17651C30.7952 6.17651 31.3433 6.24672 31.8177 6.38713C32.3003 6.51929 32.742 6.7134 33.1428 6.96945V11.9253C33.1428 12.0822 33.1142 12.1854 33.0569 12.235C32.9996 12.2846 32.8851 12.3093 32.7134 12.3093H31.4618C31.3719 12.3093 31.3023 12.297 31.2533 12.2721C31.2042 12.2392 31.1633 12.1895 31.1306 12.1235L30.971 11.7518C30.7338 12.0078 30.4476 12.1937 30.1122 12.3093C29.785 12.4332 29.3842 12.4952 28.9097 12.4952ZM29.83 10.8102C30.149 10.8102 30.3984 10.7317 30.5784 10.5748C30.7583 10.4179 30.8483 10.1949 30.8483 9.90573V7.973C30.693 7.89866 30.4966 7.86149 30.2594 7.86149C29.8258 7.86149 29.4782 8.01429 29.2165 8.31988C28.9629 8.62549 28.8361 9.05499 28.8361 9.6084C28.8361 10.4096 29.1673 10.8102 29.83 10.8102Z" fill="white"/>
<path d="M34.8503 12.3093C34.613 12.3093 34.4453 12.2597 34.3472 12.1607C34.249 12.0615 34.2 11.9046 34.2 11.6898V6.74644C34.2 6.59776 34.2245 6.49864 34.2735 6.44908C34.3308 6.39127 34.4453 6.36236 34.6171 6.36236H35.8809C35.979 6.36236 36.0527 6.37888 36.1017 6.41191C36.159 6.43669 36.1917 6.48625 36.1999 6.56059L36.2612 6.93228C36.4903 6.70101 36.7889 6.51929 37.1569 6.38713C37.5332 6.24672 37.9504 6.17651 38.4085 6.17651C39.071 6.17651 39.6068 6.36649 40.0158 6.74644C40.4248 7.11812 40.6293 7.67152 40.6293 8.40663V11.6898C40.6293 11.9046 40.5802 12.0615 40.4821 12.1607C40.3921 12.2597 40.2285 12.3093 39.9913 12.3093H38.8011C38.5639 12.3093 38.3921 12.2597 38.2858 12.1607C38.1876 12.0615 38.1385 11.9046 38.1385 11.6898V8.56768C38.1385 8.31988 38.0853 8.14235 37.979 8.03494C37.8727 7.92756 37.705 7.87388 37.476 7.87388C37.2306 7.87388 37.0342 7.93995 36.887 8.07208C36.748 8.20426 36.6784 8.38597 36.6784 8.61729V11.6898C36.6784 11.9046 36.6293 12.0615 36.5312 12.1607C36.4412 12.2597 36.2776 12.3093 36.0404 12.3093H34.8503Z" fill="white"/>
<path d="M44.9664 12.4952C43.8212 12.4952 42.9378 12.2267 42.316 11.6898C41.6944 11.153 41.3835 10.3725 41.3835 9.34822C41.3835 8.72052 41.5267 8.16711 41.813 7.68804C42.0993 7.20898 42.5124 6.83729 43.0522 6.57298C43.6003 6.30867 44.2466 6.17651 44.9909 6.17651C45.5553 6.17651 46.0298 6.23021 46.4142 6.33758C46.8068 6.44495 47.1545 6.61015 47.4571 6.83316C47.5471 6.89098 47.5921 6.96531 47.5921 7.05618C47.5921 7.12225 47.5594 7.20898 47.4939 7.31635L46.9908 8.19598C46.9336 8.31168 46.8641 8.36949 46.7823 8.36949C46.7332 8.36949 46.6555 8.33644 46.5492 8.27035C46.3283 8.12997 46.1197 8.02668 45.9234 7.96061C45.7352 7.89453 45.498 7.86149 45.2118 7.86149C44.8027 7.86149 44.4715 7.99365 44.2179 8.25797C43.9725 8.52225 43.8498 8.88567 43.8498 9.34822C43.8498 9.81905 43.9765 10.1825 44.2301 10.4385C44.4838 10.6863 44.8314 10.8102 45.2731 10.8102C45.5348 10.8102 45.7721 10.773 45.9848 10.6987C46.1975 10.6244 46.4142 10.5211 46.6351 10.3889C46.7496 10.3229 46.8313 10.2898 46.8805 10.2898C46.954 10.2898 47.0195 10.3476 47.0768 10.4633L47.6289 11.4173C47.6698 11.4999 47.6903 11.5659 47.6903 11.6155C47.6903 11.6898 47.6411 11.76 47.543 11.8261C47.1995 12.0492 46.8231 12.2143 46.4142 12.3217C46.0134 12.4373 45.5307 12.4952 44.9664 12.4952Z" fill="white"/>
<path d="M50.8014 12.4952C50.0324 12.4952 49.4148 12.2474 48.9486 11.7518C48.4906 11.248 48.2615 10.5418 48.2615 9.63316C48.2615 8.93938 48.4169 8.33226 48.7278 7.81193C49.0467 7.29158 49.4926 6.89098 50.0651 6.61015C50.6459 6.32106 51.3126 6.17651 52.0652 6.17651C52.6868 6.17651 53.2349 6.24672 53.7093 6.38713C54.1919 6.51929 54.6336 6.7134 55.0345 6.96945V11.9253C55.0345 12.0822 55.0058 12.1854 54.9486 12.235C54.8913 12.2846 54.7768 12.3093 54.605 12.3093H53.3535C53.2635 12.3093 53.1939 12.297 53.1449 12.2721C53.0958 12.2392 53.0549 12.1895 53.0222 12.1235L52.8627 11.7518C52.6255 12.0078 52.3392 12.1937 52.0038 12.3093C51.6766 12.4332 51.2758 12.4952 50.8014 12.4952ZM51.7216 10.8102C52.0406 10.8102 52.2901 10.7317 52.4701 10.5748C52.65 10.4179 52.74 10.1949 52.74 9.90573V7.973C52.5846 7.89866 52.3883 7.86149 52.151 7.86149C51.7175 7.86149 51.3699 8.01429 51.1081 8.31988C50.8546 8.62549 50.7277 9.05499 50.7277 9.6084C50.7277 10.4096 51.059 10.8102 51.7216 10.8102Z" fill="white"/>
<path d="M62.7418 11.8383C62.799 11.9044 62.8277 11.9788 62.8277 12.0614C62.8277 12.1357 62.8032 12.1977 62.754 12.2472C62.705 12.2885 62.6395 12.3092 62.5578 12.3092H60.6559C60.5414 12.3092 60.4555 12.3009 60.3982 12.2844C60.3492 12.2596 60.296 12.2141 60.2388 12.1481L58.5701 9.85602V11.6897C58.5701 11.9044 58.521 12.0614 58.4228 12.1605C58.3246 12.2596 58.157 12.3092 57.9198 12.3092H56.7296C56.4924 12.3092 56.3247 12.2596 56.2265 12.1605C56.1365 12.0614 56.0916 11.9044 56.0916 11.6897V4.51615C56.0916 4.30139 56.1406 4.14446 56.2388 4.04535C56.337 3.93797 56.5006 3.88428 56.7296 3.88428H57.9198C58.157 3.88428 58.3246 3.93797 58.4228 4.04535C58.521 4.14446 58.5701 4.30139 58.5701 4.51615V8.66664L60.1897 6.53564C60.2388 6.46956 60.2919 6.42413 60.3492 6.39935C60.4064 6.37458 60.4924 6.36219 60.6069 6.36219H62.5087C62.5905 6.36219 62.6518 6.38696 62.6927 6.43652C62.7418 6.47782 62.7664 6.53564 62.7664 6.60998C62.7664 6.69257 62.7377 6.76691 62.6805 6.83299L60.5823 9.26137L62.7418 11.8383Z" fill="white"/>
<path d="M66.7258 12.4952C66.0387 12.4952 65.4252 12.3795 64.8853 12.1483C64.3536 11.917 63.9323 11.57 63.6215 11.1076C63.3107 10.645 63.1553 10.0792 63.1553 9.41021C63.1553 8.36121 63.4497 7.56002 64.0387 7.00662C64.6276 6.45322 65.4743 6.17651 66.5785 6.17651C67.6583 6.17651 68.4763 6.44908 69.0325 6.99423C69.597 7.5311 69.8792 8.27863 69.8792 9.2367C69.8792 9.64973 69.6992 9.8562 69.3393 9.8562H65.4865C65.4865 10.2113 65.6174 10.484 65.8792 10.6739C66.1491 10.8639 66.554 10.9588 67.0939 10.9588C67.4292 10.9588 67.7074 10.93 67.9283 10.8722C68.1573 10.8061 68.3863 10.7111 68.6153 10.5872C68.7135 10.5459 68.779 10.5252 68.8116 10.5252C68.8853 10.5252 68.9466 10.5748 68.9957 10.6739L69.4129 11.4668C69.4538 11.5495 69.4743 11.6114 69.4743 11.6527C69.4743 11.727 69.4251 11.7973 69.327 11.8633C68.9917 12.0863 68.6113 12.2474 68.1859 12.3465C67.7606 12.4456 67.2738 12.4952 66.7258 12.4952ZM67.6706 8.62967C67.6706 8.31578 67.5806 8.07208 67.4007 7.89866C67.2207 7.72521 66.9507 7.63848 66.5908 7.63848C66.2309 7.63848 65.9569 7.72933 65.7687 7.91105C65.5806 8.08454 65.4865 8.32406 65.4865 8.62967H67.6706Z" fill="white"/>
<path d="M74.0848 12.495C73.3976 12.495 72.7473 12.4248 72.1339 12.2845C71.5204 12.1357 71.0255 11.9292 70.6492 11.665C70.5102 11.5741 70.4407 11.4791 70.4407 11.38C70.4407 11.3139 70.4652 11.2437 70.5142 11.1694L71.1155 10.203C71.1809 10.1039 71.2463 10.0543 71.3118 10.0543C71.3527 10.0543 71.4222 10.0832 71.5204 10.141C71.823 10.3145 72.1666 10.4549 72.5511 10.5622C72.9355 10.6697 73.3159 10.7234 73.6922 10.7234C74.0766 10.7234 74.3588 10.6656 74.5387 10.5499C74.7269 10.4342 74.8209 10.2484 74.8209 9.99236C74.8209 9.74456 74.7187 9.55047 74.5142 9.41008C74.3179 9.26962 73.9457 9.09209 73.3976 8.87734C72.5715 8.56345 71.9253 8.21242 71.459 7.82419C71.0009 7.42773 70.7719 6.89086 70.7719 6.21356C70.7719 5.39585 71.0623 4.77225 71.6431 4.34274C72.2239 3.91324 72.9968 3.69849 73.9621 3.69849C74.6328 3.69849 75.2054 3.76044 75.6799 3.88433C76.1625 3.99996 76.5714 4.18168 76.9068 4.42947C77.0459 4.53685 77.1154 4.63596 77.1154 4.72682C77.1154 4.78464 77.0909 4.85071 77.0418 4.92505L76.4406 5.89144C76.3669 5.99055 76.3015 6.04011 76.2442 6.04011C76.2034 6.04011 76.1338 6.01119 76.0357 5.95338C75.5612 5.63951 74.9968 5.48257 74.3425 5.48257C73.9907 5.48257 73.7208 5.54039 73.5326 5.65603C73.3445 5.77167 73.2504 5.96164 73.2504 6.22595C73.2504 6.40766 73.2995 6.55634 73.3976 6.67197C73.4958 6.7876 73.6267 6.89086 73.7903 6.98171C73.9621 7.06431 74.2238 7.17168 74.5755 7.30383L74.8087 7.39056C75.414 7.6301 75.8885 7.86136 76.232 8.08442C76.5838 8.29909 76.8496 8.56755 77.0295 8.88972C77.2095 9.20353 77.2994 9.59999 77.2994 10.0791C77.2994 10.8142 77.0254 11.4007 76.4774 11.8384C75.9375 12.2762 75.14 12.495 74.0848 12.495Z" fill="white"/>
<path d="M79.9064 12.3093C79.7838 12.3093 79.6899 12.2886 79.6243 12.2473C79.5588 12.2061 79.5097 12.1234 79.4769 11.9995L77.8942 6.64726C77.8778 6.59771 77.8696 6.56054 77.8696 6.53576C77.8696 6.42012 77.9514 6.3623 78.115 6.3623H79.7345C79.8411 6.3623 79.9184 6.38295 79.9678 6.42425C80.0171 6.45728 80.0498 6.5151 80.0657 6.5977L80.7282 9.41015L81.5626 7.14284C81.6041 7.04373 81.6447 6.97765 81.6853 6.94461C81.7346 6.90331 81.8167 6.88266 81.9313 6.88266H82.7037C82.8183 6.88266 82.8964 6.90331 82.937 6.94461C82.9863 6.97765 83.0309 7.04373 83.0723 7.14284L83.8941 9.41015L84.5693 6.5977C84.5932 6.5151 84.6258 6.45728 84.6672 6.42425C84.7078 6.38295 84.7819 6.3623 84.8878 6.3623H86.5201C86.6833 6.3623 86.7654 6.42012 86.7654 6.53576C86.7654 6.56054 86.7574 6.59771 86.7407 6.64726L85.1458 11.9995C85.1131 12.1234 85.0638 12.2061 84.9985 12.2473C84.9411 12.2886 84.8512 12.3093 84.7285 12.3093H83.5262C83.4115 12.3093 83.3256 12.2886 83.2682 12.2473C83.2109 12.1978 83.1623 12.1152 83.1209 11.9995L82.3111 9.75701L81.5013 11.9995C81.4687 12.1152 81.4193 12.1978 81.354 12.2473C81.2967 12.2886 81.2115 12.3093 81.0968 12.3093H79.9064Z" fill="white"/>
<path d="M89.8755 12.4952C89.1063 12.4952 88.4892 12.2474 88.0226 11.7518C87.5648 11.248 87.3354 10.5418 87.3354 9.63316C87.3354 8.93938 87.4907 8.33226 87.8021 7.81193C88.1206 7.29158 88.5665 6.89098 89.139 6.61015C89.7202 6.32106 90.3867 6.17651 91.1392 6.17651C91.761 6.17651 92.3088 6.24672 92.7834 6.38713C93.2659 6.51929 93.7079 6.7134 94.1084 6.96945V11.9253C94.1084 12.0822 94.0797 12.1854 94.0224 12.235C93.9651 12.2846 93.8512 12.3093 93.6792 12.3093H92.4275C92.3375 12.3093 92.2682 12.297 92.2189 12.2721C92.1695 12.2392 92.1289 12.1895 92.0962 12.1235L91.937 11.7518C91.6997 12.0078 91.4131 12.1937 91.0778 12.3093C90.7506 12.4332 90.3501 12.4952 89.8755 12.4952ZM90.796 10.8102C91.1145 10.8102 91.3645 10.7317 91.5444 10.5748C91.7244 10.4179 91.8144 10.1949 91.8144 9.90573V7.973C91.6583 7.89866 91.4624 7.86149 91.2252 7.86149C90.7912 7.86149 90.444 8.01429 90.1821 8.31988C89.9288 8.62549 89.8015 9.05499 89.8015 9.6084C89.8015 10.4096 90.1335 10.8102 90.796 10.8102Z" fill="white"/>
<path d="M95.8036 14.812C95.5663 14.812 95.3991 14.7625 95.3003 14.6634C95.2104 14.5642 95.1658 14.4073 95.1658 14.1925V7.09334C95.5336 6.82903 95.9963 6.61015 96.552 6.43669C97.1086 6.26324 97.6891 6.17651 98.2942 6.17651C100.765 6.17651 102 7.23375 102 9.34822C102 10.3064 101.738 11.0704 101.215 11.6403C100.691 12.2102 99.9512 12.4952 98.9942 12.4952C98.7242 12.4952 98.4623 12.4621 98.2083 12.396C97.963 12.33 97.7584 12.2392 97.5951 12.1235V14.1925C97.5951 14.4073 97.5458 14.5642 97.4478 14.6634C97.3499 14.7625 97.1819 14.812 96.9446 14.812H95.8036ZM98.4662 10.8226C98.8182 10.8226 99.0801 10.6905 99.2513 10.4261C99.4313 10.1535 99.5213 9.79011 99.5213 9.33584C99.5213 8.79899 99.4154 8.42311 99.2028 8.20836C98.9981 7.98539 98.6788 7.87388 98.2457 7.87388C97.967 7.87388 97.7464 7.91105 97.5832 7.98539V9.95534C97.5832 10.2362 97.6604 10.4509 97.8157 10.5996C97.9718 10.7483 98.1883 10.8226 98.4662 10.8226Z" fill="white"/>
<path fill-rule="evenodd" clip-rule="evenodd" d="M7.76807 15.9684C5.44359 15.9666 3.57117 15.4034 2.2629 14.3918C0.938929 13.368 0.236572 11.9152 0.236572 10.2712C0.236572 8.6872 0.937392 7.54501 1.73036 6.77294C2.35181 6.1679 3.03758 5.78039 3.51509 5.55749C3.40711 5.22287 3.27239 4.78479 3.15185 4.33232C2.99057 3.72685 2.83235 3.01647 2.83235 2.49591C2.83235 1.87976 2.96538 1.26097 3.3241 0.780146C3.70309 0.272142 4.27364 0 4.96003 0C5.49647 0 5.95191 0.200927 6.30846 0.547547C6.64928 0.878866 6.87612 1.31887 7.03273 1.77754C7.30795 2.58352 7.4151 3.59609 7.44515 4.60659H8.10262C8.13272 3.59609 8.23981 2.58352 8.51508 1.77754C8.6717 1.31887 8.89847 0.878866 9.23935 0.547547C9.59591 0.200927 10.0513 0 10.5877 0C11.2742 0 11.8447 0.272142 12.2237 0.780146C12.5824 1.26097 12.7155 1.87976 12.7155 2.49591C12.7155 3.01647 12.5572 3.72685 12.3959 4.33232C12.2754 4.78479 12.1407 5.22287 12.0327 5.55749C12.5102 5.78039 13.196 6.1679 13.8174 6.77294C14.6104 7.54501 15.3112 8.6872 15.3112 10.2712C15.3112 11.9152 14.6089 13.368 13.2849 14.3918C11.9766 15.4034 10.1042 15.9666 7.77971 15.9684H7.76807Z" fill="#633001"/>
<path d="M4.95987 0.585938C3.95455 0.585938 3.49177 1.35099 3.49177 2.40904C3.49177 3.25004 4.02947 4.93433 4.25009 5.59C4.29971 5.73747 4.22175 5.89904 4.07954 5.95623C3.27381 6.28031 0.895996 7.46688 0.895996 10.1844C0.895996 13.0469 3.31239 15.2053 7.76842 15.2088C7.77019 15.2088 7.77196 15.2087 7.77373 15.2087C7.77551 15.2087 7.77728 15.2088 7.77905 15.2088C12.235 15.2053 14.6514 13.0469 14.6514 10.1844C14.6514 7.46688 12.2737 6.28031 11.4679 5.95623C11.3257 5.89904 11.2478 5.73747 11.2974 5.59C11.518 4.93433 12.0557 3.25004 12.0557 2.40904C12.0557 1.35099 11.5929 0.585938 10.5876 0.585938C9.14049 0.585938 8.7797 2.67697 8.75399 4.92115C8.75231 5.07097 8.63351 5.19253 8.48668 5.19253H7.06081C6.91392 5.19253 6.79519 5.07097 6.79348 4.92115C6.76774 2.67697 6.40701 0.585938 4.95987 0.585938Z" fill="#D1884F"/>
<path d="M7.77905 14.2919C4.50499 14.2919 0.901657 12.5042 0.896012 10.1899C0.896004 10.1935 0.895996 10.1971 0.895996 10.2007C0.895996 13.0656 3.31624 15.2251 7.77905 15.2251C12.2419 15.2251 14.6621 13.0656 14.6621 10.2007C14.6621 10.1971 14.6621 10.1935 14.6621 10.1899C14.6565 12.5042 11.0531 14.2919 7.77905 14.2919Z" fill="#FEDC90"/>
<path d="M5.95981 9.47903C5.95981 10.2604 5.59783 10.6673 5.1513 10.6673C4.70476 10.6673 4.34277 10.2604 4.34277 9.47903C4.34277 8.69769 4.70476 8.29077 5.1513 8.29077C5.59783 8.29077 5.95981 8.69769 5.95981 9.47903Z" fill="#633001"/>
<path d="M11.2154 9.47903C11.2154 10.2604 10.8534 10.6673 10.4069 10.6673C9.96037 10.6673 9.59839 10.2604 9.59839 9.47903C9.59839 8.69769 9.96037 8.29077 10.4069 8.29077C10.8534 8.29077 11.2154 8.69769 11.2154 9.47903Z" fill="#633001"/>
</g>
<defs>
<clipPath id="clip0_4024_3040">
<rect width="102" height="16" fill="white"/>
</clipPath>
</defs>
</svg>
